<?xml version="1.0" encoding="UTF-8"?>
<!DOCTYPE svg PUBLIC "-//W3C//DTD SVG 1.1//EN" "http://www.w3.org/Graphics/SVG/1.1/DTD/svg11.dtd">
<svg xmlns="http://www.w3.org/2000/svg" version="1.1" width="506px" height="309px" style="shape-rendering:geometricPrecision; text-rendering:geometricPrecision; image-rendering:optimizeQuality; fill-rule:evenodd; clip-rule:evenodd" xmlns:xlink="http://www.w3.org/1999/xlink">
<g><path style="opacity:1" fill="#fefefe" d="M -0.5,-0.5 C 168.167,-0.5 336.833,-0.5 505.5,-0.5C 505.5,102.5 505.5,205.5 505.5,308.5C 336.833,308.5 168.167,308.5 -0.5,308.5C -0.5,205.5 -0.5,102.5 -0.5,-0.5 Z"/></g>
<g><path style="opacity:1" fill="#dedede" d="M 101.5,22.5 C 102.895,24.8473 102.728,27.1806 101,29.5C 101.207,27.2487 101.373,24.9154 101.5,22.5 Z"/></g>
<g><path style="opacity:1" fill="#f6f6f6" d="M 135.5,33.5 C 134.032,34.8057 132.699,36.3057 131.5,38C 129.899,38.2734 128.399,38.7734 127,39.5C 126.805,37.7928 126.805,36.1261 127,34.5C 124.631,35.9274 124.131,37.7607 125.5,40C 121.682,41.3197 119.015,43.8197 117.5,47.5C 117.196,46.8501 116.863,46.1835 116.5,45.5C 118.027,43.8067 119.36,41.9734 120.5,40C 119.692,39.6924 119.025,39.1924 118.5,38.5C 120.817,35.6826 123.317,33.0159 126,30.5C 126.789,28.2884 126.622,26.2884 125.5,24.5C 126.694,21.9824 127.86,21.9824 129,24.5C 129.333,24.1667 129.667,23.8333 130,23.5C 130.369,26.0522 130.369,28.7189 130,31.5C 131.667,30.1667 133.333,28.8333 135,27.5C 135.495,29.4727 135.662,31.4727 135.5,33.5 Z"/></g>
<g><path style="opacity:1" fill="#eae9e9" d="M 176.5,21.5 C 177.152,22.4486 177.486,23.6153 177.5,25C 177.691,26.9729 177.024,28.4729 175.5,29.5C 175.011,26.8862 175.344,24.2196 176.5,21.5 Z"/></g>
<g><path style="opacity:1" fill="#f4f4f4" d="M 72.5,40.5 C 71.8333,41.8333 71.1667,43.1667 70.5,44.5C 66.831,38.9694 65.331,39.636 66,46.5C 66.5613,45.9781 67.228,45.6448 68,45.5C 69.3002,46.7073 70.8002,47.3739 72.5,47.5C 72.6495,48.552 72.4828,49.552 72,50.5C 70.3221,48.4468 68.4888,48.1134 66.5,49.5C 64.0286,45.0476 63.8619,40.3809 66,35.5C 70.0284,30.2286 75.1951,27.8953 81.5,28.5C 78.8009,31.1966 75.8009,33.5299 72.5,35.5C 71.2651,37.3163 71.2651,38.983 72.5,40.5 Z"/></g>
<g><path style="opacity:1" fill="#efefef" d="M 154.5,46.5 C 152.507,51.5224 150.34,51.189 148,45.5C 147.667,47.1667 147.333,48.8333 147,50.5C 144.794,48.1889 142.961,48.1889 141.5,50.5C 136.518,39.2866 140.184,31.7866 152.5,28C 153.944,27.2195 155.277,27.3861 156.5,28.5C 155.311,29.4287 153.978,29.762 152.5,29.5C 151.633,32.2267 149.799,34.2267 147,35.5C 145.85,37.7538 145.516,40.0871 146,42.5C 147.709,39.5815 149.542,36.7482 151.5,34C 153.425,34.1349 155.425,34.3016 157.5,34.5C 157.5,31.5 157.5,28.5 157.5,25.5C 158.5,25.5 159.5,25.5 160.5,25.5C 160.373,27.9154 160.207,30.2487 160,32.5C 160.819,28.764 162.485,25.4306 165,22.5C 167.368,24.6844 168.035,27.3511 167,30.5C 166.152,33.4178 164.818,36.0844 163,38.5C 163.135,35.7802 163.468,33.1135 164,30.5C 161.478,33.0218 158.978,35.5218 156.5,38C 157.932,41.2214 156.932,42.8881 153.5,43C 156.15,39.7927 155.984,39.2927 153,41.5C 152.387,43.4952 152.887,45.1619 154.5,46.5 Z"/></g>
<g><path style="opacity:1" fill="#ededed" d="M 169.5,48.5 C 169.44,47.9569 169.107,47.6236 168.5,47.5C 167.186,48.3128 166.019,49.3128 165,50.5C 164.508,49.451 164.674,48.451 165.5,47.5C 164.388,46.7348 163.721,45.7348 163.5,44.5C 163.701,41.0995 165.368,38.5995 168.5,37C 167.692,36.6924 167.025,36.1924 166.5,35.5C 167.833,34.5 169.167,33.5 170.5,32.5C 169.975,31.8076 169.308,31.3076 168.5,31C 170.09,29.9542 171.59,28.7875 173,27.5C 173.667,30.5 173.667,33.5 173,36.5C 168.624,39.3518 167.791,42.8518 170.5,47C 170.43,47.7648 170.097,48.2648 169.5,48.5 Z"/></g>
<g><path style="opacity:1" fill="#ededed" d="M 94.5,49.5 C 94.631,48.7611 94.4643,48.0944 94,47.5C 92.6861,48.3128 91.5195,49.3128 90.5,50.5C 89.8576,47.2027 88.6909,46.8693 87,49.5C 85.3866,48.3777 84.2199,48.8777 83.5,51C 85.1193,51.2355 86.1193,52.0689 86.5,53.5C 84.1667,53.5 81.8333,53.5 79.5,53.5C 79.9528,52.5416 80.6195,51.7083 81.5,51C 80.6634,49.9887 80.33,48.8221 80.5,47.5C 79.596,48.209 79.2627,49.209 79.5,50.5C 76.1667,50.5 74.5,48.8333 74.5,45.5C 73.0413,45.5674 71.7079,45.2341 70.5,44.5C 71.1667,43.1667 71.8333,41.8333 72.5,40.5C 72.9399,37.737 74.2732,36.737 76.5,37.5C 78.1487,36.3523 79.6487,35.019 81,33.5C 81.957,35.7092 83.1236,35.5425 84.5,33C 83.0656,30.0514 83.2323,27.2181 85,24.5C 85.5447,33.6328 86.5447,33.6328 88,24.5C 88.6667,23.8333 89.3333,23.1667 90,22.5C 90.7249,26.595 91.2249,30.4283 91.5,34C 93.075,33.621 94.575,33.7877 96,34.5C 96.6667,33.1667 96.6667,31.8333 96,30.5C 95.1627,32.0074 93.9961,32.5074 92.5,32C 94.2415,30.3804 96.0748,28.8804 98,27.5C 98.2484,31.6096 98.4151,35.6096 98.5,39.5C 97.169,42.9057 95.8356,46.2391 94.5,49.5 Z"/></g>
<g><path style="opacity:1" fill="#fafafa" d="M 80.5,47.5 C 79.8186,44.7319 80.8186,42.3986 83.5,40.5C 82.8333,39.8333 82.1667,39.1667 81.5,38.5C 83.316,36.1831 85.316,34.0165 87.5,32C 88.4835,31.4092 89.1501,31.7425 89.5,33C 88.4962,34.7983 87.9962,36.6316 88,38.5C 90.0781,36.6153 92.2447,35.9486 94.5,36.5C 90.5143,37.6571 88.681,40.3237 89,44.5C 87.7485,42.9991 86.7485,41.3325 86,39.5C 83.9131,42.0703 82.0798,44.737 80.5,47.5 Z"/></g>
<g><path style="opacity:1" fill="#eeeeee" d="M 125.5,24.5 C 126.622,26.2884 126.789,28.2884 126,30.5C 123.317,33.0159 120.817,35.6826 118.5,38.5C 119.025,39.1924 119.692,39.6924 120.5,40C 119.36,41.9734 118.027,43.8067 116.5,45.5C 116.863,46.1835 117.196,46.8501 117.5,47.5C 116.596,48.209 116.263,49.209 116.5,50.5C 113.221,49.9694 111.887,47.9694 112.5,44.5C 110.265,44.7947 108.265,44.4614 106.5,43.5C 107.496,43.5858 108.329,43.2524 109,42.5C 110.092,38.8812 112.092,35.8812 115,33.5C 115.333,34.1667 115.667,34.8333 116,35.5C 117.609,34.8534 119.109,34.02 120.5,33C 119.773,31.6012 119.273,30.1012 119,28.5C 113.371,31.3176 109.371,35.651 107,41.5C 106.667,40.1667 106.333,38.8333 106,37.5C 105.107,38.7112 104.274,38.7112 103.5,37.5C 104.347,36.1552 105.513,35.1552 107,34.5C 107.333,33.5 107.667,32.5 108,31.5C 111.625,28.5132 115.625,27.1799 120,27.5C 120.308,26.6919 120.808,26.0253 121.5,25.5C 122.308,27.4233 122.808,29.4233 123,31.5C 124.043,29.1671 124.876,26.8337 125.5,24.5 Z"/></g>
<g><path style="opacity:1" fill="#ececec" d="M 135.5,33.5 C 134.638,36.8852 132.972,39.8852 130.5,42.5C 131.883,45.0756 132.717,44.7423 133,41.5C 133.667,43.8333 133.667,46.1667 133,48.5C 132.617,49.056 132.117,49.3893 131.5,49.5C 131.631,48.7611 131.464,48.0944 131,47.5C 129.686,48.3128 128.519,49.3128 127.5,50.5C 126.858,47.2027 125.691,46.8693 124,49.5C 123.586,49.0426 123.086,48.7093 122.5,48.5C 121.15,49.9501 119.484,50.6168 117.5,50.5C 117.5,49.5 117.5,48.5 117.5,47.5C 119.015,43.8197 121.682,41.3197 125.5,40C 124.131,37.7607 124.631,35.9274 127,34.5C 126.805,36.1261 126.805,37.7928 127,39.5C 128.399,38.7734 129.899,38.2734 131.5,38C 132.699,36.3057 134.032,34.8057 135.5,33.5 Z"/></g>
<g><path style="opacity:1" fill="#dcdbdb" d="M 70.5,44.5 C 71.7079,45.2341 73.0413,45.5674 74.5,45.5C 74.5,48.8333 76.1667,50.5 79.5,50.5C 79.2627,49.209 79.596,48.209 80.5,47.5C 80.33,48.8221 80.6634,49.9887 81.5,51C 80.6195,51.7083 79.9528,52.5416 79.5,53.5C 76.1667,53.5 72.8333,53.5 69.5,53.5C 69.2294,51.5695 68.2294,50.2362 66.5,49.5C 68.4888,48.1134 70.3221,48.4468 72,50.5C 72.4828,49.552 72.6495,48.552 72.5,47.5C 70.8002,47.3739 69.3002,46.7073 68,45.5C 67.228,45.6448 66.5613,45.9781 66,46.5C 65.331,39.636 66.831,38.9694 70.5,44.5 Z"/></g>
<g><path style="opacity:1" fill="#d8d7d7" d="M 94.5,49.5 C 92.754,51.5837 91.4207,53.917 90.5,56.5C 89.596,55.791 89.2627,54.791 89.5,53.5C 88.5,53.5 87.5,53.5 86.5,53.5C 86.1193,52.0689 85.1193,51.2355 83.5,51C 84.2199,48.8777 85.3866,48.3777 87,49.5C 88.6909,46.8693 89.8576,47.2027 90.5,50.5C 91.5195,49.3128 92.6861,48.3128 94,47.5C 94.4643,48.0944 94.631,48.7611 94.5,49.5 Z"/></g>
<g><path style="opacity:1" fill="#dedddd" d="M 106.5,43.5 C 108.265,44.4614 110.265,44.7947 112.5,44.5C 111.887,47.9694 113.221,49.9694 116.5,50.5C 116.263,49.209 116.596,48.209 117.5,47.5C 117.5,48.5 117.5,49.5 117.5,50.5C 119.484,50.6168 121.15,49.9501 122.5,48.5C 123.086,48.7093 123.586,49.0426 124,49.5C 125.691,46.8693 126.858,47.2027 127.5,50.5C 128.519,49.3128 129.686,48.3128 131,47.5C 131.464,48.0944 131.631,48.7611 131.5,49.5C 130.043,51.6282 129.043,53.9616 128.5,56.5C 127.596,55.791 127.263,54.791 127.5,53.5C 120.833,53.5 114.167,53.5 107.5,53.5C 107.737,54.791 107.404,55.791 106.5,56.5C 107.093,53.4041 106.093,51.0708 103.5,49.5C 106.058,48.775 108.392,48.775 110.5,49.5C 108.434,46.3459 105.768,45.3459 102.5,46.5C 102.247,44.1727 102.914,42.1727 104.5,40.5C 105.425,41.3569 106.092,42.3569 106.5,43.5 Z"/></g>
<g><path style="opacity:1" fill="#e9e9e9" d="M 163.5,44.5 C 162.837,46.0419 162.17,47.7086 161.5,49.5C 160.035,48.3913 159.035,48.8913 158.5,51C 160.119,51.2355 161.119,52.0689 161.5,53.5C 159.167,53.5 156.833,53.5 154.5,53.5C 155.833,51.1667 155.833,48.8333 154.5,46.5C 156.764,44.9029 158.764,42.9029 160.5,40.5C 161.984,41.4669 162.984,42.8002 163.5,44.5 Z"/></g>
<g><path style="opacity:1" fill="#d7d7d7" d="M 163.5,44.5 C 163.721,45.7348 164.388,46.7348 165.5,47.5C 164.674,48.451 164.508,49.451 165,50.5C 166.019,49.3128 167.186,48.3128 168.5,47.5C 169.107,47.6236 169.44,47.9569 169.5,48.5C 167.686,50.9653 166.353,53.632 165.5,56.5C 164.596,55.791 164.263,54.791 164.5,53.5C 163.5,53.5 162.5,53.5 161.5,53.5C 161.119,52.0689 160.119,51.2355 158.5,51C 159.035,48.8913 160.035,48.3913 161.5,49.5C 162.17,47.7086 162.837,46.0419 163.5,44.5 Z"/></g>
<g><path style="opacity:1" fill="#dcdcdc" d="M 154.5,46.5 C 155.833,48.8333 155.833,51.1667 154.5,53.5C 151.5,53.5 148.5,53.5 145.5,53.5C 143.924,52.8571 142.59,51.8571 141.5,50.5C 142.961,48.1889 144.794,48.1889 147,50.5C 147.333,48.8333 147.667,47.1667 148,45.5C 150.34,51.189 152.507,51.5224 154.5,46.5 Z"/></g>
<g><path style="opacity:1" fill="#c5c4c4" d="M 128.5,56.5 C 131.688,57.3299 133.355,59.4966 133.5,63C 131.828,66.5007 130.161,70.0007 128.5,73.5C 128.046,71.7411 128.046,69.7411 128.5,67.5C 133.183,65.261 133.516,62.4276 129.5,59C 128.207,58.51 126.873,58.3433 125.5,58.5C 125.414,57.5041 125.748,56.6708 126.5,56C 124.892,55.342 123.725,55.842 123,57.5C 120.787,56.2405 118.287,55.5738 115.5,55.5C 113.167,55.8333 110.833,56.1667 108.5,56.5C 108.137,57.1835 107.804,57.8501 107.5,58.5C 103.736,59.4231 102.236,61.7565 103,65.5C 103.816,66.8228 104.983,67.4894 106.5,67.5C 106.5,68.1667 106.5,68.8333 106.5,69.5C 106.5,69.8333 106.5,70.1667 106.5,70.5C 108.031,71.9245 107.698,72.5912 105.5,72.5C 103.903,69.4166 102.57,66.2499 101.5,63C 101.462,59.5365 103.129,57.3699 106.5,56.5C 107.404,55.791 107.737,54.791 107.5,53.5C 114.167,53.5 120.833,53.5 127.5,53.5C 127.263,54.791 127.596,55.791 128.5,56.5 Z"/></g>
<g><path style="opacity:1" fill="#c7c7c7" d="M 69.5,53.5 C 72.8333,53.5 76.1667,53.5 79.5,53.5C 81.8333,53.5 84.1667,53.5 86.5,53.5C 87.5,53.5 88.5,53.5 89.5,53.5C 89.2627,54.791 89.596,55.791 90.5,56.5C 93.6928,57.5275 95.6928,59.6941 96.5,63C 94.6094,66.055 92.9427,69.2216 91.5,72.5C 90.8165,72.8627 90.1499,73.1961 89.5,73.5C 89.9707,71.4214 90.6373,69.4214 91.5,67.5C 95.4671,64.7992 95.4671,61.9658 91.5,59C 83.5,58.3333 75.5,58.3333 67.5,59C 65.5561,61.1529 65.0561,63.6529 66,66.5C 66.6708,67.2524 67.5041,67.5858 68.5,67.5C 68.2594,69.8984 68.9261,71.8984 70.5,73.5C 70.5,73.8333 70.5,74.1667 70.5,74.5C 70.7373,75.791 70.404,76.791 69.5,77.5C 68.4257,72.1971 66.4257,67.3638 63.5,63C 64.9896,59.378 66.9896,56.2113 69.5,53.5 Z"/></g>
<g><path style="opacity:1" fill="#e4e3e3" d="M 71.5,55.5 C 76.2137,55.1734 80.8804,55.5067 85.5,56.5C 83.1667,56.8333 80.8333,57.1667 78.5,57.5C 75.7305,57.4714 73.3972,56.8048 71.5,55.5 Z"/></g>
<g><path style="opacity:1" fill="#d7d6d6" d="M 125.5,58.5 C 119.5,58.5 113.5,58.5 107.5,58.5C 107.804,57.8501 108.137,57.1835 108.5,56.5C 110.833,56.1667 113.167,55.8333 115.5,55.5C 118.287,55.5738 120.787,56.2405 123,57.5C 123.725,55.842 124.892,55.342 126.5,56C 125.748,56.6708 125.414,57.5041 125.5,58.5 Z"/></g>
<g><path style="opacity:1" fill="#e8e8e8" d="M 91.5,67.5 C 83.8333,67.5 76.1667,67.5 68.5,67.5C 67.5041,67.5858 66.6708,67.2524 66,66.5C 65.0561,63.6529 65.5561,61.1529 67.5,59C 75.5,58.3333 83.5,58.3333 91.5,59C 95.4671,61.9658 95.4671,64.7992 91.5,67.5 Z"/></g>
<g><path style="opacity:1" fill="#e8e8e8" d="M 107.5,58.5 C 113.5,58.5 119.5,58.5 125.5,58.5C 126.873,58.3433 128.207,58.51 129.5,59C 133.516,62.4276 133.183,65.261 128.5,67.5C 121.167,67.5 113.833,67.5 106.5,67.5C 104.983,67.4894 103.816,66.8228 103,65.5C 102.236,61.7565 103.736,59.4231 107.5,58.5 Z"/></g>
<g><path style="opacity:1" fill="#eaeaea" d="M 163.5,58.5 C 168.15,58.6479 169.983,60.9812 169,65.5C 168.292,66.3805 167.458,67.0472 166.5,67.5C 166.793,66.3566 166.793,65.0233 166.5,63.5C 158.9,64.8973 151.234,66.2306 143.5,67.5C 142.558,67.3918 141.725,67.0585 141,66.5C 140.056,63.6529 140.556,61.1529 142.5,59C 149.492,58.5004 156.492,58.3337 163.5,58.5 Z"/></g>
<g><path style="opacity:1" fill="#cccbcb" d="M 91.5,63.5 C 92.7736,64.1894 92.7736,65.0228 91.5,66C 86.8333,66.6667 82.1667,66.6667 77.5,66C 81.8333,65.6667 86.1667,65.3333 90.5,65C 91.056,64.6174 91.3893,64.1174 91.5,63.5 Z"/></g>
<g><path style="opacity:1" fill="#cecdcd" d="M 129.5,63.5 C 130.774,64.1894 130.774,65.0228 129.5,66C 124.5,66.6667 119.5,66.6667 114.5,66C 119.167,65.6667 123.833,65.3333 128.5,65C 129.056,64.6174 129.389,64.1174 129.5,63.5 Z"/></g>
<g><path style="opacity:1" fill="#d3d3d3" d="M 145.5,53.5 C 145.328,54.4916 145.662,55.1583 146.5,55.5C 148.397,56.8048 150.731,57.4714 153.5,57.5C 156.253,57.4489 158.92,57.1156 161.5,56.5C 161.435,56.9382 161.601,57.2716 162,57.5C 163.087,55.0684 163.587,55.4017 163.5,58.5C 156.492,58.3337 149.492,58.5004 142.5,59C 140.556,61.1529 140.056,63.6529 141,66.5C 141.725,67.0585 142.558,67.3918 143.5,67.5C 151.234,66.2306 158.9,64.8973 166.5,63.5C 166.793,65.0233 166.793,66.3566 166.5,67.5C 165.677,69.9872 164.677,72.3206 163.5,74.5C 160.913,73.1836 157.913,72.517 154.5,72.5C 151.5,72.8333 148.5,73.1667 145.5,73.5C 146.348,75.4086 146.682,77.4086 146.5,79.5C 146.167,79.5 145.833,79.5 145.5,79.5C 144.405,74.5885 142.239,70.2551 139,66.5C 138.333,64.5 138.333,62.5 139,60.5C 141.443,58.2461 143.61,55.9127 145.5,53.5 Z"/></g>
<g><path style="opacity:1" fill="#e6e6e6" d="M 146.5,55.5 C 151.695,55.1795 156.695,55.5128 161.5,56.5C 158.92,57.1156 156.253,57.4489 153.5,57.5C 150.731,57.4714 148.397,56.8048 146.5,55.5 Z"/></g>
<g><path style="opacity:1" fill="#eae9e9" d="M 163.5,74.5 C 163.5,77.5 163.5,80.5 163.5,83.5C 162.167,83.5 160.833,83.5 159.5,83.5C 159.676,80.5524 159.676,77.8857 159.5,75.5C 158.914,75.7093 158.414,76.0426 158,76.5C 157.503,78.8098 157.337,81.1432 157.5,83.5C 156.167,83.5 154.833,83.5 153.5,83.5C 153.5,81.1667 153.5,78.8333 153.5,76.5C 156.797,76.6713 157.131,76.0046 154.5,74.5C 151.828,76.4255 150.828,79.0921 151.5,82.5C 150.5,82.5 149.5,82.5 148.5,82.5C 148.104,79.9556 148.771,77.7889 150.5,76C 149.551,75.3828 148.718,75.5494 148,76.5C 147.667,78.5 147.333,80.5 147,82.5C 146.517,81.552 146.351,80.552 146.5,79.5C 146.682,77.4086 146.348,75.4086 145.5,73.5C 148.5,73.1667 151.5,72.8333 154.5,72.5C 157.913,72.517 160.913,73.1836 163.5,74.5 Z"/></g>
<g><path style="opacity:1" fill="#eaeaea" d="M 79.5,83.5 C 79.0196,80.3148 79.6863,77.4815 81.5,75C 80.0024,74.4153 79.0024,74.9153 78.5,76.5C 77.5318,78.6074 77.1984,80.9407 77.5,83.5C 76.5,83.5 75.5,83.5 74.5,83.5C 74.1044,80.5178 74.7711,77.8511 76.5,75.5C 75.132,74.4063 73.9653,74.7397 73,76.5C 72.6667,78.8333 72.3333,81.1667 72,83.5C 71.8195,80.3054 71.3195,77.3054 70.5,74.5C 70.5,74.1667 70.5,73.8333 70.5,73.5C 76.31,72.5104 82.31,72.1771 88.5,72.5C 87.9492,75.8067 87.6159,79.1401 87.5,82.5C 86.5,82.5 85.5,82.5 84.5,82.5C 84.1043,79.9556 84.771,77.7889 86.5,76C 85.8333,75.3333 85.1667,75.3333 84.5,76C 83.565,78.3806 83.2317,80.8806 83.5,83.5C 82.1667,83.5 80.8333,83.5 79.5,83.5 Z"/></g>
<g><path style="opacity:1" fill="#d0cfcf" d="M 68.5,67.5 C 76.1667,67.5 83.8333,67.5 91.5,67.5C 90.6373,69.4214 89.9707,71.4214 89.5,73.5C 89.5,76.5 89.5,79.5 89.5,82.5C 95.5,81.8333 101.5,81.1667 107.5,80.5C 107.893,77.4867 107.226,74.8201 105.5,72.5C 107.698,72.5912 108.031,71.9245 106.5,70.5C 112.176,70.6661 117.843,70.4994 123.5,70C 117.928,68.1745 112.261,68.0079 106.5,69.5C 106.5,68.8333 106.5,68.1667 106.5,67.5C 113.833,67.5 121.167,67.5 128.5,67.5C 128.046,69.7411 128.046,71.7411 128.5,73.5C 127.631,75.717 127.298,78.0504 127.5,80.5C 132.37,80.6896 137.036,81.3563 141.5,82.5C 138.5,82.5 135.5,82.5 132.5,82.5C 127.006,82.1474 121.506,81.8141 116,81.5C 106.469,82.2667 96.9686,83.2667 87.5,84.5C 84.6146,84.8064 81.9479,84.4731 79.5,83.5C 80.8333,83.5 82.1667,83.5 83.5,83.5C 83.2317,80.8806 83.565,78.3806 84.5,76C 85.1667,75.3333 85.8333,75.3333 86.5,76C 84.771,77.7889 84.1043,79.9556 84.5,82.5C 85.5,82.5 86.5,82.5 87.5,82.5C 87.6159,79.1401 87.9492,75.8067 88.5,72.5C 82.31,72.1771 76.31,72.5104 70.5,73.5C 68.9261,71.8984 68.2594,69.8984 68.5,67.5 Z"/></g>
<g><path style="opacity:1" fill="#eaeaea" d="M 108.5,72.5 C 114.5,72.5 120.5,72.5 126.5,72.5C 126.326,74.861 125.993,77.1944 125.5,79.5C 124.325,79.719 123.325,79.3857 122.5,78.5C 123.108,74.4915 122.441,74.4915 120.5,78.5C 119.675,79.3857 118.675,79.719 117.5,79.5C 117.48,77.857 118.147,76.5237 119.5,75.5C 116.08,74.2473 114.746,75.5807 115.5,79.5C 114.5,79.5 113.5,79.5 112.5,79.5C 112.33,78.1779 112.663,77.0113 113.5,76C 111.193,75.7287 110.026,76.8953 110,79.5C 109.56,77.1341 109.06,74.8008 108.5,72.5 Z"/></g>
<g><path style="opacity:1" fill="#e9e9e9" d="M 106.5,70.5 C 106.5,70.1667 106.5,69.8333 106.5,69.5C 112.261,68.0079 117.928,68.1745 123.5,70C 117.843,70.4994 112.176,70.6661 106.5,70.5 Z"/></g>
<g><path style="opacity:1" fill="#b1b0b0" d="M 132.5,82.5 C 145.228,85.0773 158.228,86.0773 171.5,85.5C 171.217,120.912 169.55,156.245 166.5,191.5C 166.291,192.922 165.791,194.255 165,195.5C 152.097,180.595 137.931,167.095 122.5,155C 113.256,152.766 107.922,156.266 106.5,165.5C 112.448,165.091 116.948,167.424 120,172.5C 123.833,180.833 127.667,189.167 131.5,197.5C 116.611,198.471 106.111,192.138 100,178.5C 99.1994,171.607 100.033,164.94 102.5,158.5C 102.167,158.167 101.833,157.833 101.5,157.5C 99.4759,159.358 97.3092,161.025 95,162.5C 95.9967,167.213 95.6634,171.88 94,176.5C 88.9219,182.991 85.7553,190.325 84.5,198.5C 75.5738,188.874 73.4071,177.874 78,165.5C 79.8333,163.667 81.6667,161.833 83.5,160C 88.4082,160.403 92.4082,158.737 95.5,155C 90.7176,154.881 86.0509,154.215 81.5,153C 73.1552,145.978 69.4885,136.978 70.5,126C 70.2907,121.963 70.9573,118.13 72.5,114.5C 73.8276,117.824 75.661,120.824 78,123.5C 83.9255,127.421 89.2588,132.088 94,137.5C 95.0622,141.637 95.8955,145.804 96.5,150C 102.432,150.694 108.099,149.694 113.5,147C 117.748,144.378 122.081,142.045 126.5,140C 131.489,139.501 136.489,139.334 141.5,139.5C 140.733,145.602 141.899,151.269 145,156.5C 150.348,161.681 155.515,167.015 160.5,172.5C 161.664,165.524 161.831,158.524 161,151.5C 160.171,145.34 157.004,140.84 151.5,138C 146.676,137.886 142.01,137.053 137.5,135.5C 142.17,131.666 147.503,129.166 153.5,128C 160.712,122.737 164.046,115.57 163.5,106.5C 163.797,101.058 162.463,96.0576 159.5,91.5C 153.387,98.461 148.221,106.128 144,114.5C 146.318,124.268 142.818,130.602 133.5,133.5C 133.167,133.167 132.833,132.833 132.5,132.5C 136.523,125.026 136.357,117.693 132,110.5C 125.61,102.428 117.443,97.2609 107.5,95C 108.701,95.9025 109.535,97.0692 110,98.5C 111.446,106.966 114.112,114.966 118,122.5C 121.33,126.248 125.497,127.915 130.5,127.5C 130.21,131.961 127.877,134.795 123.5,136C 117.692,136.734 112.359,135.401 107.5,132C 91.5944,117.929 76.9277,102.763 63.5,86.5C 63.8417,85.6618 64.5084,85.3284 65.5,85.5C 72.8709,86.609 80.2042,86.2757 87.5,84.5C 96.9686,83.2667 106.469,82.2667 116,81.5C 121.506,81.8141 127.006,82.1474 132.5,82.5 Z"/></g>
<g><path style="opacity:1" fill="#c7c6c6" d="M 145.5,53.5 C 148.5,53.5 151.5,53.5 154.5,53.5C 156.833,53.5 159.167,53.5 161.5,53.5C 162.5,53.5 163.5,53.5 164.5,53.5C 164.263,54.791 164.596,55.791 165.5,56.5C 168.674,57.5097 170.674,59.6763 171.5,63C 169.696,66.1485 167.863,69.3152 166,72.5C 164.763,76.0601 164.263,79.7267 164.5,83.5C 168.329,82.931 171.663,83.5977 174.5,85.5C 173.333,104.658 172.666,123.991 172.5,143.5C 172.431,152.526 172.265,161.526 172,170.5C 174.301,169.133 176.801,168.466 179.5,168.5C 176.458,169.91 173.291,171.243 170,172.5C 169.68,177.023 169.18,181.523 168.5,186C 168.648,187.256 168.982,188.423 169.5,189.5C 168.222,189.782 167.222,190.449 166.5,191.5C 169.55,156.245 171.217,120.912 171.5,85.5C 158.228,86.0773 145.228,85.0773 132.5,82.5C 135.5,82.5 138.5,82.5 141.5,82.5C 142.833,82.5 144.167,82.5 145.5,82.5C 145.5,81.5 145.5,80.5 145.5,79.5C 145.833,79.5 146.167,79.5 146.5,79.5C 146.351,80.552 146.517,81.552 147,82.5C 147.333,80.5 147.667,78.5 148,76.5C 148.718,75.5494 149.551,75.3828 150.5,76C 148.771,77.7889 148.104,79.9556 148.5,82.5C 149.5,82.5 150.5,82.5 151.5,82.5C 150.828,79.0921 151.828,76.4255 154.5,74.5C 157.131,76.0046 156.797,76.6713 153.5,76.5C 153.5,78.8333 153.5,81.1667 153.5,83.5C 154.833,83.5 156.167,83.5 157.5,83.5C 157.337,81.1432 157.503,78.8098 158,76.5C 158.414,76.0426 158.914,75.7093 159.5,75.5C 159.676,77.8857 159.676,80.5524 159.5,83.5C 160.833,83.5 162.167,83.5 163.5,83.5C 163.5,80.5 163.5,77.5 163.5,74.5C 164.677,72.3206 165.677,69.9872 166.5,67.5C 167.458,67.0472 168.292,66.3805 169,65.5C 169.983,60.9812 168.15,58.6479 163.5,58.5C 163.587,55.4017 163.087,55.0684 162,57.5C 161.601,57.2716 161.435,56.9382 161.5,56.5C 156.695,55.5128 151.695,55.1795 146.5,55.5C 145.662,55.1583 145.328,54.4916 145.5,53.5 Z"/></g>
<g><path style="opacity:1" fill="#c1c0c0" d="M 79.5,83.5 C 81.9479,84.4731 84.6146,84.8064 87.5,84.5C 80.2042,86.2757 72.8709,86.609 65.5,85.5C 69.8814,85.6282 74.2147,85.2949 78.5,84.5C 78.5,81.8333 78.5,79.1667 78.5,76.5C 79.0024,74.9153 80.0024,74.4153 81.5,75C 79.6863,77.4815 79.0196,80.3148 79.5,83.5 Z"/></g>
<g><path style="opacity:1" fill="#faf9f9" d="M 63.5,86.5 C 76.9277,102.763 91.5944,117.929 107.5,132C 112.359,135.401 117.692,136.734 123.5,136C 127.877,134.795 130.21,131.961 130.5,127.5C 125.497,127.915 121.33,126.248 118,122.5C 114.112,114.966 111.446,106.966 110,98.5C 109.535,97.0692 108.701,95.9025 107.5,95C 117.443,97.2609 125.61,102.428 132,110.5C 136.357,117.693 136.523,125.026 132.5,132.5C 132.833,132.833 133.167,133.167 133.5,133.5C 142.818,130.602 146.318,124.268 144,114.5C 148.221,106.128 153.387,98.461 159.5,91.5C 162.463,96.0576 163.797,101.058 163.5,106.5C 164.046,115.57 160.712,122.737 153.5,128C 147.503,129.166 142.17,131.666 137.5,135.5C 142.01,137.053 146.676,137.886 151.5,138C 157.004,140.84 160.171,145.34 161,151.5C 161.831,158.524 161.664,165.524 160.5,172.5C 155.515,167.015 150.348,161.681 145,156.5C 141.899,151.269 140.733,145.602 141.5,139.5C 136.489,139.334 131.489,139.501 126.5,140C 122.081,142.045 117.748,144.378 113.5,147C 108.099,149.694 102.432,150.694 96.5,150C 95.8955,145.804 95.0622,141.637 94,137.5C 89.2588,132.088 83.9255,127.421 78,123.5C 75.661,120.824 73.8276,117.824 72.5,114.5C 70.9573,118.13 70.2907,121.963 70.5,126C 69.4885,136.978 73.1552,145.978 81.5,153C 86.0509,154.215 90.7176,154.881 95.5,155C 92.4082,158.737 88.4082,160.403 83.5,160C 81.6667,161.833 79.8333,163.667 78,165.5C 73.4071,177.874 75.5738,188.874 84.5,198.5C 85.7553,190.325 88.9219,182.991 94,176.5C 95.6634,171.88 95.9967,167.213 95,162.5C 97.3092,161.025 99.4759,159.358 101.5,157.5C 101.833,157.833 102.167,158.167 102.5,158.5C 100.033,164.94 99.1994,171.607 100,178.5C 106.111,192.138 116.611,198.471 131.5,197.5C 127.667,189.167 123.833,180.833 120,172.5C 116.948,167.424 112.448,165.091 106.5,165.5C 107.922,156.266 113.256,152.766 122.5,155C 137.931,167.095 152.097,180.595 165,195.5C 165.791,194.255 166.291,192.922 166.5,191.5C 167.222,190.449 168.222,189.782 169.5,189.5C 175.175,192.501 181.175,194.668 187.5,196C 198.634,198.902 200.968,204.902 194.5,214C 189.478,218.105 184.145,218.938 178.5,216.5C 177.4,215.442 176.066,214.608 174.5,214C 165.564,212.192 157.231,209.026 149.5,204.5C 128.588,209.454 107.588,209.787 86.5,205.5C 78.8514,209.15 70.8514,211.983 62.5,214C 60.1209,214.716 58.1209,215.883 56.5,217.5C 48.4091,218.876 41.9091,216.209 37,209.5C 36.1891,203.623 38.6891,199.79 44.5,198C 51.6366,196.066 58.6366,193.732 65.5,191C 66.6901,186.213 66.6901,181.379 65.5,176.5C 65.2329,170.162 64.8995,163.829 64.5,157.5C 62.9909,133.682 62.6576,110.015 63.5,86.5 Z"/></g>
<g><path style="opacity:1" fill="#d7d7d7" d="M 70.5,74.5 C 71.3195,77.3054 71.8195,80.3054 72,83.5C 72.3333,81.1667 72.6667,78.8333 73,76.5C 73.9653,74.7397 75.132,74.4063 76.5,75.5C 74.7711,77.8511 74.1044,80.5178 74.5,83.5C 75.5,83.5 76.5,83.5 77.5,83.5C 77.1984,80.9407 77.5318,78.6074 78.5,76.5C 78.5,79.1667 78.5,81.8333 78.5,84.5C 74.2147,85.2949 69.8814,85.6282 65.5,85.5C 64.5084,85.3284 63.8417,85.6618 63.5,86.5C 62.6576,110.015 62.9909,133.682 64.5,157.5C 63.596,158.209 63.2627,159.209 63.5,160.5C 61.772,135.019 60.772,109.352 60.5,83.5C 63.5,83.5 66.5,83.5 69.5,83.5C 69.5,81.5 69.5,79.5 69.5,77.5C 70.404,76.791 70.7373,75.791 70.5,74.5 Z"/></g>
<g><path style="opacity:1" fill="#d8d8d8" d="M 174.5,85.5 C 174.724,105.022 174.057,124.355 172.5,143.5C 172.666,123.991 173.333,104.658 174.5,85.5 Z"/></g>
<g><path style="opacity:1" fill="#cecdcd" d="M 236.5,131.5 C 229.167,130.167 221.833,130.167 214.5,131.5C 213.957,131.44 213.624,131.107 213.5,130.5C 221.5,129.167 229.5,129.167 237.5,130.5C 237.376,131.107 237.043,131.44 236.5,131.5 Z"/></g>
<g><path style="opacity:1" fill="#cdcccc" d="M 275.5,130.5 C 269.642,130.178 263.975,130.511 258.5,131.5C 257.957,131.44 257.624,131.107 257.5,130.5C 263.654,129.183 269.654,129.183 275.5,130.5 Z"/></g>
<g><path style="opacity:1" fill="#cdcccc" d="M 314.5,136.5 C 316.117,138.121 317.284,140.121 318,142.5C 318.499,138.514 318.666,134.514 318.5,130.5C 304.99,130.171 291.656,130.504 278.5,131.5C 277.957,131.44 277.624,131.107 277.5,130.5C 291.484,129.501 305.484,129.167 319.5,129.5C 319.5,134.167 319.5,138.833 319.5,143.5C 316.24,142.514 314.573,140.181 314.5,136.5 Z"/></g>
<g><path style="opacity:1" fill="#bab9b9" d="M 236.5,131.5 C 234.552,132.131 232.719,133.131 231,134.5C 230.333,146.833 230.333,159.167 231,171.5C 236.409,183.717 245.243,186.884 257.5,181C 261.092,177.984 263.258,174.151 264,169.5C 264.667,157.833 264.667,146.167 264,134.5C 262.281,133.131 260.448,132.131 258.5,131.5C 263.975,130.511 269.642,130.178 275.5,130.5C 273.592,132.024 271.425,133.357 269,134.5C 268.667,145.833 268.333,157.167 268,168.5C 265.844,181.012 258.344,187.012 245.5,186.5C 232.325,187.174 224.158,181.174 221,168.5C 220.667,157.167 220.333,145.833 220,134.5C 218.281,133.131 216.448,132.131 214.5,131.5C 221.833,130.167 229.167,130.167 236.5,131.5 Z"/></g>
<g><path style="opacity:1" fill="#b8b7b7" d="M 314.5,136.5 C 313.251,134.864 311.584,133.697 309.5,133C 304.511,132.501 299.511,132.334 294.5,132.5C 294.5,140.167 294.5,147.833 294.5,155.5C 299.267,155.809 303.934,155.309 308.5,154C 309.861,152.416 310.528,150.582 310.5,148.5C 311.814,150.915 312.481,153.748 312.5,157C 312.481,160.252 311.814,163.085 310.5,165.5C 310.607,163.097 309.607,161.264 307.5,160C 303.27,158.71 298.936,158.21 294.5,158.5C 294.334,165.841 294.5,173.174 295,180.5C 296.42,182.422 298.253,183.755 300.5,184.5C 293.197,185.497 285.863,185.831 278.5,185.5C 278.5,184.5 278.5,183.5 278.5,182.5C 280.722,182.822 282.556,182.155 284,180.5C 284.833,164.823 284.666,149.156 283.5,133.5C 281.664,132.972 279.997,132.306 278.5,131.5C 291.656,130.504 304.99,130.171 318.5,130.5C 318.666,134.514 318.499,138.514 318,142.5C 317.284,140.121 316.117,138.121 314.5,136.5 Z"/></g>
<g><path style="opacity:1" fill="#b9b8b8" d="M 367.5,165.5 C 367.605,169.548 367.272,173.548 366.5,177.5C 364.327,181.939 360.66,184.439 355.5,185C 344.839,185.5 334.172,185.667 323.5,185.5C 323.5,184.5 323.5,183.5 323.5,182.5C 325.722,182.822 327.556,182.155 329,180.5C 329.667,165.167 329.667,149.833 329,134.5C 327.556,132.845 325.722,132.178 323.5,132.5C 323.5,131.5 323.5,130.5 323.5,129.5C 333.506,129.334 343.506,129.5 353.5,130C 364.312,131.814 368.145,137.981 365,148.5C 362.407,152.212 358.907,154.545 354.5,155.5C 357.899,157.268 361.232,159.102 364.5,161C 366.141,162.129 367.141,163.629 367.5,165.5 Z"/></g>
<g><path style="opacity:1" fill="#fdfcfc" d="M 339.5,132.5 C 353.072,131.24 358.239,137.24 355,150.5C 350.818,154.925 345.652,156.592 339.5,155.5C 339.5,147.833 339.5,140.167 339.5,132.5 Z"/></g>
<g><path style="opacity:1" fill="#b9b8b8" d="M 397.5,129.5 C 398.5,129.5 399.5,129.5 400.5,129.5C 407.006,146.847 414.34,163.847 422.5,180.5C 424.234,182.234 426.234,183.568 428.5,184.5C 420.833,185.833 413.167,185.833 405.5,184.5C 408.19,183.81 409.857,182.143 410.5,179.5C 408.836,175.505 407.17,171.505 405.5,167.5C 399.5,166.167 393.5,166.167 387.5,167.5C 384.511,172.122 383.344,177.122 384,182.5C 385.509,183.09 387.009,183.756 388.5,184.5C 382.202,185.496 375.868,185.83 369.5,185.5C 369.5,184.5 369.5,183.5 369.5,182.5C 372.652,183.041 375.152,182.041 377,179.5C 384.657,163.184 391.49,146.517 397.5,129.5 Z"/></g>
<g><path style="opacity:1" fill="#fafafa" d="M 394.5,144.5 C 396.093,145.348 397.26,146.681 398,148.5C 400.323,153.299 402.156,158.299 403.5,163.5C 398.456,163.827 393.456,163.494 388.5,162.5C 390.705,156.55 392.705,150.55 394.5,144.5 Z"/></g>
<g><path style="opacity:1" fill="#dadada" d="M 310.5,148.5 C 311.209,147.596 312.209,147.263 313.5,147.5C 313.5,153.833 313.5,160.167 313.5,166.5C 312.209,166.737 311.209,166.404 310.5,165.5C 311.814,163.085 312.481,160.252 312.5,157C 312.481,153.748 311.814,150.915 310.5,148.5 Z"/></g>
<g><path style="opacity:1" fill="#fcfcfc" d="M 339.5,158.5 C 352.735,157.566 358.569,163.566 357,176.5C 354.929,180.953 351.429,182.953 346.5,182.5C 343.989,182.712 341.822,182.045 340,180.5C 339.5,173.174 339.334,165.841 339.5,158.5 Z"/></g>
<g><path style="opacity:1" fill="#cfcfcf" d="M 64.5,157.5 C 64.8995,163.829 65.2329,170.162 65.5,176.5C 64.5489,175.081 64.2155,173.415 64.5,171.5C 60.6125,171.354 56.9458,170.687 53.5,169.5C 56.5788,169.26 59.5788,169.593 62.5,170.5C 63.487,167.232 63.8204,163.898 63.5,160.5C 63.2627,159.209 63.596,158.209 64.5,157.5 Z"/></g>
<g><path style="opacity:1" fill="#c7c6c6" d="M 179.5,168.5 C 188.009,167.179 196.675,167.179 205.5,168.5C 205.376,169.107 205.043,169.44 204.5,169.5C 196.35,168.507 188.017,168.174 179.5,168.5 Z"/></g>
<g><path style="opacity:1" fill="#d7d7d7" d="M 367.5,165.5 C 368.16,166.964 368.493,168.631 368.5,170.5C 368.684,173.205 368.017,175.538 366.5,177.5C 367.272,173.548 367.605,169.548 367.5,165.5 Z"/></g>
<g><path style="opacity:1" fill="#ececec" d="M 408.5,197.5 C 409.245,206.69 409.912,216.023 410.5,225.5C 409.167,225.5 407.833,225.5 406.5,225.5C 407.263,224.732 408.263,224.232 409.5,224C 408.516,215.251 408.183,206.418 408.5,197.5 Z"/></g>
<g><path style="opacity:1" fill="#bdbcbc" d="M 366.5,197.5 C 367.883,206.299 369.216,215.299 370.5,224.5C 368.892,225.318 367.225,225.985 365.5,226.5C 362.572,226.104 359.572,225.937 356.5,226C 350.392,220.94 350.058,215.607 355.5,210C 358.088,208.314 360.755,208.147 363.5,209.5C 364.484,206.572 364.817,203.572 364.5,200.5C 363.325,200.719 362.325,200.386 361.5,199.5C 363.291,198.83 364.958,198.163 366.5,197.5 Z"/></g>
<g><path style="opacity:1" fill="#bbbaba" d="M 408.5,197.5 C 408.183,206.418 408.516,215.251 409.5,224C 408.263,224.232 407.263,224.732 406.5,225.5C 403.424,225.844 400.091,226.011 396.5,226C 389.889,220.506 389.889,214.84 396.5,209C 399.146,208.503 401.813,208.336 404.5,208.5C 404.5,205.833 404.5,203.167 404.5,200.5C 403.325,200.719 402.325,200.386 401.5,199.5C 403.777,198.579 406.11,197.913 408.5,197.5 Z"/></g>
<g><path style="opacity:1" fill="#c1c0c0" d="M 214.5,200.5 C 217.64,199.359 220.973,199.192 224.5,200C 223.214,203.233 222.547,206.733 222.5,210.5C 222.667,213.833 222.833,217.167 223,220.5C 224.018,223.683 226.185,225.016 229.5,224.5C 233.533,224.314 236.366,222.314 238,218.5C 238.667,212.833 238.667,207.167 238,201.5C 237.25,200.874 236.416,200.374 235.5,200C 237.833,199.333 240.167,199.333 242.5,200C 240.731,205.884 239.898,212.05 240,218.5C 238.218,224.116 234.384,226.783 228.5,226.5C 222.894,226.396 219.061,223.73 217,218.5C 217.129,212.084 216.295,206.084 214.5,200.5 Z"/></g>
<g><path style="opacity:1" fill="#bbbaba" d="M 268.5,200.5 C 272.161,200.35 273.161,201.85 271.5,205C 267.707,205.487 266.707,203.987 268.5,200.5 Z"/></g>
<g><path style="opacity:1" fill="#bab9b9" d="M 343.5,200.5 C 347.161,200.35 348.161,201.85 346.5,205C 342.707,205.487 341.707,203.987 343.5,200.5 Z"/></g>
<g><path style="opacity:1" fill="#bab9b9" d="M 386.5,224.5 C 385.5,224.5 384.5,224.5 383.5,224.5C 383.721,221.721 383.388,219.054 382.5,216.5C 384.586,212.341 383.252,210.341 378.5,210.5C 378.5,211.833 378.5,213.167 378.5,214.5C 377.07,214.421 375.736,214.754 374.5,215.5C 373.246,213.741 373.579,212.241 375.5,211C 379.625,207.618 383.458,207.784 387,211.5C 386.997,215.742 387.83,219.742 389.5,223.5C 388.675,224.386 387.675,224.719 386.5,224.5 Z"/></g>
<g><path style="opacity:1" fill="#bab9b9" d="M 252.5,211.5 C 253.492,209.974 254.992,209.307 257,209.5C 258.436,209.559 259.769,209.892 261,210.5C 261.333,214.833 261.667,219.167 262,223.5C 262.5,224 263,224.5 263.5,225C 260.833,225.667 258.167,225.667 255.5,225C 257.399,220.822 258.065,216.322 257.5,211.5C 255.833,211.5 254.167,211.5 252.5,211.5 Z"/></g>
<g><path style="opacity:1" fill="#b6b5b5" d="M 269.5,210.5 C 271.436,214.715 272.103,219.381 271.5,224.5C 270.5,224.5 269.5,224.5 268.5,224.5C 268.817,220.298 268.483,216.298 267.5,212.5C 266.624,212.631 265.957,212.298 265.5,211.5C 266.689,210.571 268.022,210.238 269.5,210.5 Z"/></g>
<g><path style="opacity:1" fill="#bcbbbb" d="M 315.5,209.5 C 316.931,209.881 317.764,210.881 318,212.5C 319.508,210.162 321.675,209.162 324.5,209.5C 324.785,211.288 324.452,212.955 323.5,214.5C 321.629,213.233 319.796,213.233 318,214.5C 316.977,218.317 317.477,221.817 319.5,225C 316.833,225.667 314.167,225.667 311.5,225C 313.059,223.004 313.726,220.671 313.5,218C 313.346,215.621 312.68,213.454 311.5,211.5C 312.949,210.828 314.282,210.161 315.5,209.5 Z"/></g>
<g><path style="opacity:1" fill="#fbfbfb" d="M 357.5,210.5 C 359.792,210.244 361.959,210.577 364,211.5C 364.499,215.486 364.666,219.486 364.5,223.5C 361.348,223.953 358.848,222.953 357,220.5C 356.253,217.076 356.42,213.743 357.5,210.5 Z"/></g>
<g><path style="opacity:1" fill="#fafafa" d="M 397.5,210.5 C 399.792,210.244 401.959,210.577 404,211.5C 404.499,215.486 404.666,219.486 404.5,223.5C 395.69,222.685 393.357,218.352 397.5,210.5 Z"/></g>
<g><path style="opacity:1" fill="#b8b7b7" d="M 252.5,211.5 C 250.519,215.183 250.019,219.183 251,223.5C 251.5,224 252,224.5 252.5,225C 250.167,225.667 247.833,225.667 245.5,225C 247.083,220.342 246.75,215.842 244.5,211.5C 246.108,210.682 247.775,210.015 249.5,209.5C 250.265,210.612 251.265,211.279 252.5,211.5 Z"/></g>
<g><path style="opacity:1" fill="#bdbcbc" d="M 428.5,216.5 C 424.833,216.5 421.167,216.5 417.5,216.5C 417.263,217.791 417.596,218.791 418.5,219.5C 420.185,224.633 423.185,225.633 427.5,222.5C 428.571,224.325 427.904,225.492 425.5,226C 416.507,226.672 412.674,222.505 414,213.5C 418.219,207.258 422.885,206.925 428,212.5C 428.49,213.793 428.657,215.127 428.5,216.5 Z"/></g>
<g><path style="opacity:1" fill="#fbfbfb" d="M 419.5,210.5 C 423.5,209.833 425.167,211.5 424.5,215.5C 422.5,215.5 420.5,215.5 418.5,215.5C 418.366,213.708 418.699,212.042 419.5,210.5 Z"/></g>
<g><path style="opacity:1" fill="#b7b7b7" d="M 346.5,209.5 C 346.5,214.5 346.5,219.5 346.5,224.5C 345.5,224.5 344.5,224.5 343.5,224.5C 343.817,220.298 343.483,216.298 342.5,212.5C 341.624,212.631 340.957,212.298 340.5,211.5C 342.411,210.523 344.411,209.857 346.5,209.5 Z"/></g>
<g><path style="opacity:1" fill="#bfbfbf" d="M 329.5,208.5 C 332.119,208.232 334.619,208.565 337,209.5C 337.774,213.515 337.274,214.015 335.5,211C 333.044,210.054 331.044,210.554 329.5,212.5C 331.457,214.485 333.79,215.985 336.5,217C 339.539,220.805 338.872,223.805 334.5,226C 332.5,226.667 330.5,226.667 328.5,226C 326.717,224.933 326.217,223.433 327,221.5C 328.848,223.953 331.348,224.953 334.5,224.5C 334.649,223.448 334.483,222.448 334,221.5C 331.213,219.953 328.88,217.953 327,215.5C 326.333,214.167 326.333,212.833 327,211.5C 328.045,210.627 328.878,209.627 329.5,208.5 Z"/></g>
<g><path style="opacity:1" fill="#bebdbd" d="M 308.5,213.5 C 308.5,214.5 308.5,215.5 308.5,216.5C 304.833,216.5 301.167,216.5 297.5,216.5C 297.263,217.791 297.596,218.791 298.5,219.5C 300.893,225.179 304.227,225.845 308.5,221.5C 309.731,222.651 309.731,223.817 308.5,225C 300.5,228.334 295.5,225.834 293.5,217.5C 294.599,210.567 298.599,207.734 305.5,209C 307.141,210.129 308.141,211.629 308.5,213.5 Z"/></g>
<g><path style="opacity:1" fill="#fbfbfb" d="M 299.5,210.5 C 303.5,209.833 305.167,211.5 304.5,215.5C 302.5,215.5 300.5,215.5 298.5,215.5C 298.366,213.708 298.699,212.042 299.5,210.5 Z"/></g>
<g><path style="opacity:1" fill="#dfdede" d="M 308.5,213.5 C 309.434,214.568 309.768,215.901 309.5,217.5C 305.351,216.92 301.684,217.586 298.5,219.5C 297.596,218.791 297.263,217.791 297.5,216.5C 301.167,216.5 304.833,216.5 308.5,216.5C 308.5,215.5 308.5,214.5 308.5,213.5 Z"/></g>
<g><path style="opacity:1" fill="#dedede" d="M 428.5,216.5 C 424.881,216.881 421.548,217.881 418.5,219.5C 417.596,218.791 417.263,217.791 417.5,216.5C 421.167,216.5 424.833,216.5 428.5,216.5 Z"/></g>
<g><path style="opacity:1" fill="#bab9b9" d="M 275.5,210.5 C 277.966,209.366 280.633,209.199 283.5,210C 282.174,213.203 282.841,216.036 285.5,218.5C 288.588,215.746 288.921,212.913 286.5,210C 288.5,209.333 290.5,209.333 292.5,210C 289.663,215.191 286.83,220.357 284,225.5C 281.743,221.317 279.743,216.984 278,212.5C 277.292,211.619 276.458,210.953 275.5,210.5 Z"/></g>
<g><path style="opacity:1" fill="#f7f7f7" d="M 378.5,223.5 C 377.167,222.167 377.167,220.833 378.5,219.5C 379.708,218.766 381.041,218.433 382.5,218.5C 382.5,220.167 382.5,221.833 382.5,223.5C 381.167,223.5 379.833,223.5 378.5,223.5 Z"/></g>
<g><path style="opacity:1" fill="#b8b7b7" d="M 376.5,218.5 C 377.492,218.328 378.158,218.662 378.5,219.5C 377.167,220.833 377.167,222.167 378.5,223.5C 377.432,224.434 376.099,224.768 374.5,224.5C 372.981,221.723 373.648,219.723 376.5,218.5 Z"/></g>
<g><path style="opacity:1" fill="#c7c7c7" d="M 269.5,210.5 C 270.209,209.596 271.209,209.263 272.5,209.5C 272.195,214.762 272.529,219.928 273.5,225C 271.167,225.667 268.833,225.667 266.5,225C 267.464,220.934 267.797,216.767 267.5,212.5C 268.483,216.298 268.817,220.298 268.5,224.5C 269.5,224.5 270.5,224.5 271.5,224.5C 272.103,219.381 271.436,214.715 269.5,210.5 Z"/></g>
<g><path style="opacity:1" fill="#cacaca" d="M 346.5,209.5 C 347.188,214.567 347.855,219.733 348.5,225C 346.167,225.667 343.833,225.667 341.5,225C 342.464,220.934 342.797,216.767 342.5,212.5C 343.483,216.298 343.817,220.298 343.5,224.5C 344.5,224.5 345.5,224.5 346.5,224.5C 346.5,219.5 346.5,214.5 346.5,209.5 Z"/></g>
<g><path style="opacity:1" fill="#cecdcd" d="M 382.5,216.5 C 383.388,219.054 383.721,221.721 383.5,224.5C 384.5,224.5 385.5,224.5 386.5,224.5C 383.86,225.421 381.027,226.088 378,226.5C 376.301,226.613 375.134,225.947 374.5,224.5C 376.099,224.768 377.432,224.434 378.5,223.5C 379.833,223.5 381.167,223.5 382.5,223.5C 382.5,221.833 382.5,220.167 382.5,218.5C 381.041,218.433 379.708,218.766 378.5,219.5C 378.158,218.662 377.492,218.328 376.5,218.5C 378.214,217.262 380.214,216.595 382.5,216.5 Z"/></g>
<g><path style="opacity:1" fill="#e9e9e9" d="M 233.5,238.5 C 227.158,238.334 220.825,238.5 214.5,239C 215.056,239.383 215.389,239.883 215.5,240.5C 213.952,240.179 213.285,239.179 213.5,237.5C 220.354,237.176 227.021,237.509 233.5,238.5 Z"/></g>
<g><path style="opacity:1" fill="#e2e2e2" d="M 328.5,237.5 C 329.209,236.596 330.209,236.263 331.5,236.5C 331.196,245.584 331.529,254.584 332.5,263.5C 331.167,254.833 329.833,246.167 328.5,237.5 Z"/></g>
<g><path style="opacity:1" fill="#c4c3c3" d="M 233.5,238.5 C 233.799,240.604 233.466,242.604 232.5,244.5C 231.738,243.372 231.071,242.205 230.5,241C 227.854,240.503 225.187,240.336 222.5,240.5C 222.167,240.5 221.833,240.5 221.5,240.5C 219.833,239.167 218.167,239.167 216.5,240.5C 216.167,240.5 215.833,240.5 215.5,240.5C 215.389,239.883 215.056,239.383 214.5,239C 220.825,238.5 227.158,238.334 233.5,238.5 Z"/></g>
<g><path style="opacity:1" fill="#bbbaba" d="M 267.5,237.5 C 269.155,245.617 270.155,253.95 270.5,262.5C 271.738,262.81 271.738,263.31 270.5,264C 269.667,264.167 268.833,264.333 268,264.5C 264.311,264.333 260.478,264.166 256.5,264C 251.167,259 251.167,254 256.5,249C 259.088,247.314 261.755,247.147 264.5,248.5C 265.966,244.947 265.632,241.614 263.5,238.5C 264.689,237.571 266.022,237.238 267.5,237.5 Z"/></g>
<g><path style="opacity:1" fill="#dedddd" d="M 267.5,237.5 C 268.209,236.596 269.209,236.263 270.5,236.5C 270.5,245.167 270.5,253.833 270.5,262.5C 270.155,253.95 269.155,245.617 267.5,237.5 Z"/></g>
<g><path style="opacity:1" fill="#b8b7b7" d="M 328.5,237.5 C 329.833,246.167 331.167,254.833 332.5,263.5C 330.034,264.634 327.367,264.801 324.5,264C 325.796,260.091 326.463,255.925 326.5,251.5C 326.435,246.982 325.769,242.649 324.5,238.5C 325.689,237.571 327.022,237.238 328.5,237.5 Z"/></g>
<g><path style="opacity:1" fill="#e9e9e9" d="M 410.5,238.5 C 405.489,238.334 400.489,238.501 395.5,239C 396.056,239.383 396.389,239.883 396.5,240.5C 394.952,240.179 394.285,239.179 394.5,237.5C 400.026,237.179 405.36,237.512 410.5,238.5 Z"/></g>
<g><path style="opacity:1" fill="#d9d9d9" d="M 444.5,249.5 C 444.5,249.833 444.5,250.167 444.5,250.5C 442.877,246.576 441.877,242.243 441.5,237.5C 440.261,237.942 439.261,238.609 438.5,239.5C 436.663,239.361 436.33,238.694 437.5,237.5C 439.409,236.652 441.409,236.318 443.5,236.5C 443.182,241.032 443.515,245.366 444.5,249.5 Z"/></g>
<g><path style="opacity:1" fill="#bcbbbb" d="M 221.5,240.5 C 221.5,243.833 221.5,247.167 221.5,250.5C 224.059,250.802 226.393,250.468 228.5,249.5C 228.461,248.244 228.961,247.244 230,246.5C 230.667,249.5 230.667,252.5 230,255.5C 229.623,254.058 228.79,253.058 227.5,252.5C 225.735,251.539 223.735,251.205 221.5,251.5C 221.185,255.371 221.518,259.038 222.5,262.5C 222.918,263.222 223.584,263.722 224.5,264C 221.167,264.667 217.833,264.667 214.5,264C 216.447,256.442 217.114,248.609 216.5,240.5C 218.167,239.167 219.833,239.167 221.5,240.5 Z"/></g>
<g><path style="opacity:1" fill="#b8b7b7" d="M 403.5,262.5 C 410.245,264.08 412.578,261.413 410.5,254.5C 410.821,252.952 411.821,252.285 413.5,252.5C 415.876,253.512 416.876,255.345 416.5,258C 416.646,260.034 415.98,261.701 414.5,263C 408.277,264.581 401.944,264.915 395.5,264C 396.416,263.626 397.25,263.126 398,262.5C 398.5,255.174 398.666,247.841 398.5,240.5C 399.601,239.402 400.934,239.235 402.5,240C 401.85,243.75 401.517,247.584 401.5,251.5C 401.511,255.565 402.178,259.232 403.5,262.5 Z"/></g>
<g><path style="opacity:1" fill="#b9b8b8" d="M 444.5,250.5 C 441.867,255.001 441.867,259.501 444.5,264C 441.833,264.667 439.167,264.667 436.5,264C 438.449,256.106 439.116,247.939 438.5,239.5C 439.261,238.609 440.261,237.942 441.5,237.5C 441.877,242.243 442.877,246.576 444.5,250.5 Z"/></g>
<g><path style="opacity:1" fill="#c1c1c1" d="M 410.5,238.5 C 416.767,242.149 417.1,246.316 411.5,251C 412.416,251.278 413.082,251.778 413.5,252.5C 411.821,252.285 410.821,252.952 410.5,254.5C 408.521,252.832 406.188,252.166 403.5,252.5C 403.5,255.833 403.5,259.167 403.5,262.5C 402.178,259.232 401.511,255.565 401.5,251.5C 401.517,247.584 401.85,243.75 402.5,240C 400.934,239.235 399.601,239.402 398.5,240.5C 397.833,240.5 397.167,240.5 396.5,240.5C 396.389,239.883 396.056,239.383 395.5,239C 400.489,238.501 405.489,238.334 410.5,238.5 Z"/></g>
<g><path style="opacity:1" fill="#fdfdfd" d="M 403.5,240.5 C 410.628,240.706 412.294,243.873 408.5,250C 406.866,250.494 405.199,250.66 403.5,250.5C 403.5,247.167 403.5,243.833 403.5,240.5 Z"/></g>
<g><path style="opacity:1" fill="#bbbaba" d="M 460.5,239.5 C 464.161,239.35 465.161,240.85 463.5,244C 459.707,244.487 458.707,242.987 460.5,239.5 Z"/></g>
<g><path style="opacity:1" fill="#e3e3e3" d="M 221.5,240.5 C 221.833,240.5 222.167,240.5 222.5,240.5C 222.5,243.5 222.5,246.5 222.5,249.5C 224.5,249.5 226.5,249.5 228.5,249.5C 226.393,250.468 224.059,250.802 221.5,250.5C 221.5,247.167 221.5,243.833 221.5,240.5 Z"/></g>
<g><path style="opacity:1" fill="#b3b3b3" d="M 53.5,169.5 C 56.9458,170.687 60.6125,171.354 64.5,171.5C 64.2155,173.415 64.5489,175.081 65.5,176.5C 66.6901,181.379 66.6901,186.213 65.5,191C 58.6366,193.732 51.6366,196.066 44.5,198C 38.6891,199.79 36.1891,203.623 37,209.5C 41.9091,216.209 48.4091,218.876 56.5,217.5C 57.1667,217.833 57.8333,218.167 58.5,218.5C 63.8446,218.313 69.1779,217.98 74.5,217.5C 80.0092,217.125 85.3425,216.458 90.5,215.5C 97.4707,214.71 104.471,214.377 111.5,214.5C 115.5,214.5 119.5,214.5 123.5,214.5C 130.833,214.833 138.167,215.167 145.5,215.5C 147.948,216.473 150.615,216.806 153.5,216.5C 153.833,216.5 154.167,216.5 154.5,216.5C 156.265,217.461 158.265,217.795 160.5,217.5C 163.314,218.165 166.314,218.498 169.5,218.5C 172.913,218.483 175.913,217.816 178.5,216.5C 184.145,218.938 189.478,218.105 194.5,214C 200.968,204.902 198.634,198.902 187.5,196C 181.175,194.668 175.175,192.501 169.5,189.5C 168.982,188.423 168.648,187.256 168.5,186C 169.18,181.523 169.68,177.023 170,172.5C 173.291,171.243 176.458,169.91 179.5,168.5C 188.017,168.174 196.35,168.507 204.5,169.5C 200.847,177.127 198.18,185.127 196.5,193.5C 194.801,193.34 193.134,193.506 191.5,194C 195.241,195.738 198.408,198.238 201,201.5C 201.667,204.167 201.667,206.833 201,209.5C 196.086,217.578 192.753,226.245 191,235.5C 189.167,237.333 187.333,239.167 185.5,241C 178.574,242.339 171.574,242.839 164.5,242.5C 164.625,245.608 163.292,247.608 160.5,248.5C 159.833,245.833 159.167,243.167 158.5,240.5C 155.833,240.167 153.167,239.833 150.5,239.5C 150.215,241.288 150.548,242.955 151.5,244.5C 153.497,244.986 154.831,246.153 155.5,248C 154.806,251.666 153.806,255.166 152.5,258.5C 150.808,260.205 149.475,262.205 148.5,264.5C 139.476,265.653 130.476,265.32 121.5,263.5C 121.167,263.5 120.833,263.5 120.5,263.5C 118.5,263.5 116.5,263.5 114.5,263.5C 113.833,263.5 113.167,263.5 112.5,263.5C 103.852,265.167 95.1857,265.5 86.5,264.5C 85.3412,263.26 84.3412,261.926 83.5,260.5C 81.4149,256.417 80.0815,252.083 79.5,247.5C 80.4057,246.035 81.739,245.035 83.5,244.5C 84.4287,243.311 84.762,241.978 84.5,240.5C 81.9407,240.198 79.6074,240.532 77.5,241.5C 76.8333,244.167 76.1667,246.833 75.5,249.5C 73.8333,249.5 72.1667,249.5 70.5,249.5C 70.4139,247.323 69.7472,245.323 68.5,243.5C 62.5275,242.67 56.5275,242.17 50.5,242C 48.04,240.542 45.8734,238.709 44,236.5C 42.9179,231.085 41.5845,225.751 40,220.5C 35.6818,215.214 33.6818,209.214 34,202.5C 37.088,198.711 40.9213,196.044 45.5,194.5C 42.9728,193.786 40.4728,193.12 38,192.5C 36.1163,184.296 33.6163,176.296 30.5,168.5C 38.3682,167.205 46.0349,167.539 53.5,169.5 Z"/></g>
<g><path style="opacity:1" fill="#c8c8c8" d="M 104.5,238.5 C 107.287,237.523 110.287,237.19 113.5,237.5C 113.5,239.833 113.5,242.167 113.5,244.5C 114.5,244.5 115.5,244.5 116.5,244.5C 116.5,242.167 116.5,239.833 116.5,237.5C 122.026,237.179 127.36,237.512 132.5,238.5C 127.5,238.5 122.5,238.5 117.5,238.5C 117.5,240.5 117.5,242.5 117.5,244.5C 119.415,244.216 121.081,244.549 122.5,245.5C 113.921,246.922 105.255,247.589 96.5,247.5C 96.5,245.5 96.5,243.5 96.5,241.5C 98.2132,242.635 98.8799,244.302 98.5,246.5C 103.13,245.771 107.797,245.437 112.5,245.5C 112.5,243.167 112.5,240.833 112.5,238.5C 109.833,238.5 107.167,238.5 104.5,238.5 Z"/></g>
<g><path style="opacity:1" fill="#d8d7d7" d="M 138.5,241.5 C 138.833,241.5 139.167,241.5 139.5,241.5C 138.659,243.379 138.325,245.379 138.5,247.5C 136.585,247.784 134.919,247.451 133.5,246.5C 134.5,246.5 135.5,246.5 136.5,246.5C 136.12,244.302 136.787,242.635 138.5,241.5 Z"/></g>
<g><path style="opacity:1" fill="#f7f7f7" d="M 139.5,241.5 C 144.419,243.192 149.085,245.358 153.5,248C 148.953,249.545 144.287,249.879 139.5,249C 138.944,248.617 138.611,248.117 138.5,247.5C 138.325,245.379 138.659,243.379 139.5,241.5 Z"/></g>
<g><path style="opacity:1" fill="#f4f3f3" d="M 96.5,241.5 C 96.5,243.5 96.5,245.5 96.5,247.5C 94.1934,249.047 91.5267,249.713 88.5,249.5C 79.5611,249.384 79.2277,247.551 87.5,244C 90.4318,242.855 93.4318,242.022 96.5,241.5 Z"/></g>
<g><path style="opacity:1" fill="#e2e1e1" d="M 79.5,247.5 C 78.8826,247.611 78.3826,247.944 78,248.5C 77.5034,246.19 77.3367,243.857 77.5,241.5C 79.6074,240.532 81.9407,240.198 84.5,240.5C 84.762,241.978 84.4287,243.311 83.5,244.5C 81.739,245.035 80.4057,246.035 79.5,247.5 Z"/></g>
<g><path style="opacity:1" fill="#fdfdfd" d="M 138.5,240.5 C 138.5,240.833 138.5,241.167 138.5,241.5C 136.787,242.635 136.12,244.302 136.5,246.5C 135.5,246.5 134.5,246.5 133.5,246.5C 131.139,246.326 128.806,245.993 126.5,245.5C 125.791,244.596 124.791,244.263 123.5,244.5C 123.5,242.833 123.5,241.167 123.5,239.5C 128.695,239.179 133.695,239.513 138.5,240.5 Z"/></g>
<g><path style="opacity:1" fill="#e7e7e7" d="M 132.5,238.5 C 134.924,238.192 137.257,238.526 139.5,239.5C 139.376,240.107 139.043,240.44 138.5,240.5C 133.695,239.513 128.695,239.179 123.5,239.5C 123.5,241.167 123.5,242.833 123.5,244.5C 124.791,244.263 125.791,244.596 126.5,245.5C 125.167,245.5 123.833,245.5 122.5,245.5C 121.081,244.549 119.415,244.216 117.5,244.5C 117.5,242.5 117.5,240.5 117.5,238.5C 122.5,238.5 127.5,238.5 132.5,238.5 Z"/></g>
<g><path style="opacity:1" fill="#e0e0e0" d="M 113.5,237.5 C 114.5,237.5 115.5,237.5 116.5,237.5C 116.5,239.833 116.5,242.167 116.5,244.5C 115.5,244.5 114.5,244.5 113.5,244.5C 113.5,242.167 113.5,239.833 113.5,237.5 Z"/></g>
<g><path style="opacity:1" fill="#fbfbfb" d="M 104.5,238.5 C 107.167,238.5 109.833,238.5 112.5,238.5C 112.5,240.833 112.5,243.167 112.5,245.5C 107.797,245.437 103.13,245.771 98.5,246.5C 98.8799,244.302 98.2132,242.635 96.5,241.5C 98.7156,239.768 101.382,238.768 104.5,238.5 Z"/></g>
<g><path style="opacity:1" fill="#eeeded" d="M 183.5,223.5 C 184.167,223.5 184.5,223.833 184.5,224.5C 184.284,226.681 185.117,228.347 187,229.5C 187.755,232.497 186.922,234.997 184.5,237C 182.555,236.872 180.722,237.038 179,237.5C 178.694,235.049 179.194,232.716 180.5,230.5C 181.452,232.045 181.785,233.712 181.5,235.5C 183.948,235.915 185.281,234.915 185.5,232.5C 184.5,230.5 183.5,228.5 182.5,226.5C 182.685,225.416 183.018,224.416 183.5,223.5 Z"/></g>
<g><path style="opacity:1" fill="#efefef" d="M 78.5,224.5 C 78.0025,228.759 78.6692,232.759 80.5,236.5C 78.9255,237.631 77.2588,237.798 75.5,237C 76.2524,236.329 76.5858,235.496 76.5,234.5C 76.1774,230.774 76.5108,227.107 77.5,223.5C 78.1067,223.624 78.44,223.957 78.5,224.5 Z"/></g>
<g><path style="opacity:1" fill="#e9e9e9" d="M 139.5,222.5 C 140.708,221.218 142.042,221.218 143.5,222.5C 141.935,226.687 141.268,231.02 141.5,235.5C 140.325,235.719 139.325,235.386 138.5,234.5C 139.207,231.017 139.873,227.517 140.5,224C 140.43,223.235 140.097,222.735 139.5,222.5 Z"/></g>
<g><path style="opacity:1" fill="#f6f6f6" d="M 132.5,221.5 C 131.834,225.684 131.167,230.018 130.5,234.5C 129.571,233.311 129.238,231.978 129.5,230.5C 130.166,227.311 130.833,223.977 131.5,220.5C 132.107,220.624 132.44,220.957 132.5,221.5 Z"/></g>
<g><path style="opacity:1" fill="#ebebeb" d="M 146.5,222.5 C 147.239,222.369 147.906,222.536 148.5,223C 147.577,225.041 147.244,227.208 147.5,229.5C 152.747,229.36 153.747,227.194 150.5,223C 152.826,222.815 154.16,223.982 154.5,226.5C 154.124,228.383 153.124,229.883 151.5,231C 152.76,232.814 152.76,234.647 151.5,236.5C 148.746,228.904 147.079,228.904 146.5,236.5C 145.127,236.657 143.793,236.49 142.5,236C 145.239,232.063 146.573,227.563 146.5,222.5 Z"/></g>
<g><path style="opacity:1" fill="#ebebeb" d="M 156.5,223.5 C 157.873,223.343 159.207,223.51 160.5,224C 158.385,228.162 157.385,232.662 157.5,237.5C 156.325,237.719 155.325,237.386 154.5,236.5C 155.707,232.256 156.374,227.923 156.5,223.5 Z"/></g>
<g><path style="opacity:1" fill="#f1f0f0" d="M 136.5,221.5 C 138.958,223.493 139.125,225.826 137,228.5C 135.867,230.211 134.367,230.711 132.5,230C 136.312,228.568 137.312,226.068 135.5,222.5C 135.5,221.833 135.833,221.5 136.5,221.5 Z"/></g>
<g><path style="opacity:1" fill="#e9e9e9" d="M 51.5,232.5 C 51.56,233.043 51.8933,233.376 52.5,233.5C 53.8032,230.355 53.8032,227.355 52.5,224.5C 57.6503,223.349 62.9836,223.183 68.5,224C 69.3734,225.045 70.3734,225.878 71.5,226.5C 71.822,228.722 71.1554,230.556 69.5,232C 71.3528,233.731 72.0195,235.564 71.5,237.5C 70.2599,235.288 68.5932,233.455 66.5,232C 69.5856,228.49 68.919,226.323 64.5,225.5C 65.1712,242.808 64.5045,242.808 62.5,225.5C 61.5,225.5 60.5,225.5 59.5,225.5C 60.0037,229.531 60.6704,233.531 61.5,237.5C 60.1667,238.833 58.8333,238.833 57.5,237.5C 57.7093,236.914 58.0426,236.414 58.5,236C 57.6621,232.155 56.6621,228.322 55.5,224.5C 54.8333,228.833 54.1667,233.167 53.5,237.5C 50.6019,232.345 47.6019,227.179 44.5,222C 45.549,221.508 46.549,221.674 47.5,222.5C 49.4012,225.631 50.7345,228.965 51.5,232.5 Z"/></g>
<g><path style="opacity:1" fill="#c8c8c8" d="M 52.5,224.5 C 53.8032,227.355 53.8032,230.355 52.5,233.5C 51.8933,233.376 51.56,233.043 51.5,232.5C 52.4731,230.052 52.8064,227.385 52.5,224.5 Z"/></g>
<g><path style="opacity:1" fill="#c9c9c9" d="M 101.5,222.5 C 100.539,224.265 100.205,226.265 100.5,228.5C 99.2031,226.307 99.2031,223.973 100.5,221.5C 101.107,221.624 101.44,221.957 101.5,222.5 Z"/></g>
<g><path style="opacity:1" fill="#ededed" d="M 82.5,223.5 C 82.5,223.167 82.5,222.833 82.5,222.5C 86.6,221.74 87.6,223.073 85.5,226.5C 85.8417,228.867 86.3417,231.2 87,233.5C 88.0113,234.337 89.1779,234.67 90.5,234.5C 90.7662,230.429 90.4328,226.429 89.5,222.5C 90.325,221.614 91.325,221.281 92.5,221.5C 92.6657,225.846 92.499,230.179 92,234.5C 89.1598,237.371 86.8265,237.037 85,233.5C 84.4652,229.962 83.6319,226.628 82.5,223.5 Z"/></g>
<g><path style="opacity:1" fill="#ebeaea" d="M 104.5,221.5 C 105.5,220.167 106.5,220.167 107.5,221.5C 107.5,223.167 107.5,224.833 107.5,226.5C 115.5,227.167 115.5,227.833 107.5,228.5C 107.5,230.167 107.5,231.833 107.5,233.5C 110.278,233.978 112.278,232.978 113.5,230.5C 114.429,231.689 114.762,233.022 114.5,234.5C 111.103,235.192 107.77,235.192 104.5,234.5C 105.799,230.036 105.799,225.702 104.5,221.5 Z"/></g>
<g><path style="opacity:1" fill="#eeeeee" d="M 179.5,222.5 C 180.376,222.369 181.043,222.702 181.5,223.5C 178.99,227.525 177.157,231.858 176,236.5C 174.301,237.406 172.467,237.739 170.5,237.5C 170.053,232.949 170.719,228.616 172.5,224.5C 172.833,225.167 173.167,225.833 173.5,226.5C 172.351,229.522 172.351,232.522 173.5,235.5C 175.888,231.329 177.888,226.996 179.5,222.5 Z"/></g>
<g><path style="opacity:1" fill="#eeeeee" d="M 120.5,219.5 C 122.861,219.674 125.194,220.007 127.5,220.5C 127.66,222.199 127.494,223.866 127,225.5C 126.328,221.97 124.162,220.637 120.5,221.5C 120.22,224.388 121.553,225.888 124.5,226C 127.932,228.367 128.265,231.034 125.5,234C 120.923,235.486 118.756,233.986 119,229.5C 120.997,234.146 123.164,234.479 125.5,230.5C 123.863,228.251 121.696,226.585 119,225.5C 118.252,223.16 118.752,221.16 120.5,219.5 Z"/></g>
<g><path style="opacity:1" fill="#f2f2f2" d="M 162.5,223.5 C 164.527,223.338 166.527,223.505 168.5,224C 169.517,225.049 169.684,226.216 169,227.5C 168.29,226.027 167.124,225.36 165.5,225.5C 165.354,229.519 165.021,233.519 164.5,237.5C 163.325,237.719 162.325,237.386 161.5,236.5C 162.912,233.098 163.912,229.598 164.5,226C 163.551,225.383 162.718,225.549 162,226.5C 161.53,225.423 161.697,224.423 162.5,223.5 Z"/></g>
<g><path style="opacity:1" fill="#d9d9d9" d="M 184.5,224.5 C 184.5,223.833 184.167,223.5 183.5,223.5C 183.866,222.305 184.699,221.639 186,221.5C 187.416,222.573 188.75,222.573 190,221.5C 190.722,223.661 190.055,225.328 188,226.5C 187.467,224.061 186.3,223.395 184.5,224.5 Z"/></g>
<g><path style="opacity:1" fill="#d9d9d9" d="M 82.5,222.5 C 82.5,222.833 82.5,223.167 82.5,223.5C 81.8423,224.398 81.1757,225.398 80.5,226.5C 79.8182,225.757 79.1515,225.091 78.5,224.5C 78.44,223.957 78.1067,223.624 77.5,223.5C 76.5108,227.107 76.1774,230.774 76.5,234.5C 75.6787,231.359 75.1787,228.025 75,224.5C 74.6655,227.19 73.4988,227.857 71.5,226.5C 71.33,225.178 71.6634,224.011 72.5,223C 75.8168,222.502 79.1501,222.335 82.5,222.5 Z"/></g>
<g><path style="opacity:1" fill="#f0f0f0" d="M 102.5,220.5 C 102.672,221.492 102.338,222.158 101.5,222.5C 101.44,221.957 101.107,221.624 100.5,221.5C 99.2031,223.973 99.2031,226.307 100.5,228.5C 100.318,230.591 100.652,232.591 101.5,234.5C 99.9255,235.631 98.2588,235.798 96.5,235C 97.6241,234.161 98.2908,232.994 98.5,231.5C 98.1543,228.424 97.4876,225.424 96.5,222.5C 94.4924,224.762 94.159,224.262 95.5,221C 97.8098,220.503 100.143,220.337 102.5,220.5 Z"/></g>
<g><path style="opacity:1" fill="#dbdada" d="M 136.5,221.5 C 135.833,221.5 135.5,221.833 135.5,222.5C 134.609,221.89 133.609,221.557 132.5,221.5C 132.44,220.957 132.107,220.624 131.5,220.5C 130.833,223.977 130.166,227.311 129.5,230.5C 129.5,226.833 129.5,223.167 129.5,219.5C 131.527,219.338 133.527,219.505 135.5,220C 136.056,220.383 136.389,220.883 136.5,221.5 Z"/></g>
<g><path style="opacity:1" fill="#d8d8d8" d="M 107.5,221.5 C 106.5,220.167 105.5,220.167 104.5,221.5C 103.842,222.398 103.176,223.398 102.5,224.5C 101.702,224.043 101.369,223.376 101.5,222.5C 102.338,222.158 102.672,221.492 102.5,220.5C 106.4,219.57 110.4,219.237 114.5,219.5C 114.785,221.288 114.452,222.955 113.5,224.5C 112.614,223.675 112.281,222.675 112.5,221.5C 110.833,221.5 109.167,221.5 107.5,221.5 Z"/></g>
<g><path style="opacity:1" fill="#dedede" d="M 177.5,216.5 C 177.833,216.5 178.167,216.5 178.5,216.5C 175.913,217.816 172.913,218.483 169.5,218.5C 166.314,218.498 163.314,218.165 160.5,217.5C 166.358,217.822 172.025,217.489 177.5,216.5 Z"/></g>
<g><path style="opacity:1" fill="#fafafa" d="M 74.5,217.5 C 69.1779,217.98 63.8446,218.313 58.5,218.5C 58.4701,217.503 58.9701,216.836 60,216.5C 64.7863,214.929 69.6196,213.596 74.5,212.5C 74.5,214.167 74.5,215.833 74.5,217.5 Z"/></g>
<g><path style="opacity:1" fill="#fdfdfd" d="M 160.5,211.5 C 166.314,212.703 171.981,214.37 177.5,216.5C 172.025,217.489 166.358,217.822 160.5,217.5C 160.5,215.5 160.5,213.5 160.5,211.5 Z"/></g>
<g><path style="opacity:1" fill="#dcdbdb" d="M 160.5,211.5 C 160.5,213.5 160.5,215.5 160.5,217.5C 158.265,217.795 156.265,217.461 154.5,216.5C 153.373,210.013 155.373,208.347 160.5,211.5 Z"/></g>
<g><path style="opacity:1" fill="#d0cfcf" d="M 178.5,216.5 C 178.167,216.5 177.833,216.5 177.5,216.5C 171.981,214.37 166.314,212.703 160.5,211.5C 155.373,208.347 153.373,210.013 154.5,216.5C 154.167,216.5 153.833,216.5 153.5,216.5C 153.664,213.813 153.497,211.146 153,208.5C 151.21,206.709 149.377,206.375 147.5,207.5C 139.576,209.026 131.576,210.026 123.5,210.5C 119.5,210.5 115.5,210.5 111.5,210.5C 102.634,210.215 93.9677,208.882 85.5,206.5C 85.5,209.5 85.5,212.5 85.5,215.5C 87.1667,215.5 88.8333,215.5 90.5,215.5C 85.3425,216.458 80.0092,217.125 74.5,217.5C 74.5,215.833 74.5,214.167 74.5,212.5C 69.6196,213.596 64.7863,214.929 60,216.5C 58.9701,216.836 58.4701,217.503 58.5,218.5C 57.8333,218.167 57.1667,217.833 56.5,217.5C 58.1209,215.883 60.1209,214.716 62.5,214C 70.8514,211.983 78.8514,209.15 86.5,205.5C 107.588,209.787 128.588,209.454 149.5,204.5C 157.231,209.026 165.564,212.192 174.5,214C 176.066,214.608 177.4,215.442 178.5,216.5 Z"/></g>
<g><path style="opacity:1" fill="#d9d9d9" d="M 111.5,210.5 C 115.5,210.5 119.5,210.5 123.5,210.5C 123.5,211.833 123.5,213.167 123.5,214.5C 119.5,214.5 115.5,214.5 111.5,214.5C 111.5,213.167 111.5,211.833 111.5,210.5 Z"/></g>
<g><path style="opacity:1" fill="#dcdcdc" d="M 147.5,207.5 C 149.377,206.375 151.21,206.709 153,208.5C 153.497,211.146 153.664,213.813 153.5,216.5C 150.615,216.806 147.948,216.473 145.5,215.5C 146.873,215.657 148.207,215.49 149.5,215C 148.877,212.393 148.21,209.893 147.5,207.5 Z"/></g>
<g><path style="opacity:1" fill="#fbfbfb" d="M 147.5,207.5 C 148.21,209.893 148.877,212.393 149.5,215C 148.207,215.49 146.873,215.657 145.5,215.5C 138.167,215.167 130.833,214.833 123.5,214.5C 123.5,213.167 123.5,211.833 123.5,210.5C 131.576,210.026 139.576,209.026 147.5,207.5 Z"/></g>
<g><path style="opacity:1" fill="#fcfcfc" d="M 111.5,210.5 C 111.5,211.833 111.5,213.167 111.5,214.5C 104.471,214.377 97.4707,214.71 90.5,215.5C 88.8333,215.5 87.1667,215.5 85.5,215.5C 85.5,212.5 85.5,209.5 85.5,206.5C 93.9677,208.882 102.634,210.215 111.5,210.5 Z"/></g>
<g><path style="opacity:1" fill="#f9f8f8" d="M 279.5,252.5 C 279.5,251.833 279.5,251.167 279.5,250.5C 283.799,248.406 285.799,249.74 285.5,254.5C 282.918,254.975 280.918,254.308 279.5,252.5 Z"/></g>
<g><path style="opacity:1" fill="#bbbaba" d="M 304.5,248.5 C 304.657,249.873 304.49,251.207 304,252.5C 302.708,251.209 301.542,251.209 300.5,252.5C 299.883,252.611 299.383,252.944 299,253.5C 298.833,255.167 298.667,256.833 298.5,258.5C 298.613,260.641 299.28,262.475 300.5,264C 297.833,264.667 295.167,264.667 292.5,264C 294.059,262.004 294.726,259.671 294.5,257C 294.346,254.621 293.68,252.454 292.5,250.5C 294.79,248.033 296.957,248.033 299,250.5C 300.41,247.864 302.243,247.197 304.5,248.5 Z"/></g>
<g><path style="opacity:1" fill="#bbbaba" d="M 372.5,256.5 C 373.492,256.328 374.158,256.662 374.5,257.5C 372.787,258.635 372.12,260.302 372.5,262.5C 373.833,262.5 375.167,262.5 376.5,262.5C 377.833,258.5 377.833,254.5 376.5,250.5C 375.432,249.566 374.099,249.232 372.5,249.5C 372.5,250.833 372.5,252.167 372.5,253.5C 366.798,254.764 366.131,253.264 370.5,249C 374.513,246.539 378.013,247.039 381,250.5C 381.232,254.555 381.732,258.555 382.5,262.5C 381.264,263.357 379.931,264.023 378.5,264.5C 375.215,264.579 371.882,264.246 368.5,263.5C 367.177,259.793 368.51,257.46 372.5,256.5 Z"/></g>
<g><path style="opacity:1" fill="#bfbebe" d="M 460.5,248.5 C 461.833,248.5 463.167,248.5 464.5,248.5C 463.919,253.975 464.586,259.142 466.5,264C 463.833,264.667 461.167,264.667 458.5,264C 460.083,259.342 459.75,254.842 457.5,250.5C 458.602,249.824 459.602,249.158 460.5,248.5 Z"/></g>
<g><path style="opacity:1" fill="#bbbaba" d="M 473.5,256.5 C 474.791,256.263 475.791,256.596 476.5,257.5C 473.916,258.048 472.916,259.715 473.5,262.5C 474.833,262.5 476.167,262.5 477.5,262.5C 478.833,258.5 478.833,254.5 477.5,250.5C 476.432,249.566 475.099,249.232 473.5,249.5C 473.838,253.151 472.172,254.817 468.5,254.5C 469.969,248.93 473.635,246.763 479.5,248C 480.333,248.833 481.167,249.667 482,250.5C 481.997,254.742 482.83,258.742 484.5,262.5C 483.135,263.456 481.635,264.122 480,264.5C 476.924,264.244 473.758,264.077 470.5,264C 467.713,260.226 468.713,257.726 473.5,256.5 Z"/></g>
<g><path style="opacity:1" fill="#bbbaba" d="M 249.5,251.5 C 249.5,252.833 249.5,254.167 249.5,255.5C 247.901,255.768 246.568,255.434 245.5,254.5C 246.158,250.323 244.492,248.823 240.5,250C 239.944,250.383 239.611,250.883 239.5,251.5C 238.366,253.966 238.199,256.633 239,259.5C 239.383,260.056 239.883,260.389 240.5,260.5C 242.908,264.013 245.742,264.346 249,261.5C 249.617,262.449 249.451,263.282 248.5,264C 238.407,266.568 233.907,262.734 235,252.5C 239.649,246.386 244.482,246.053 249.5,251.5 Z"/></g>
<g><path style="opacity:1" fill="#f9f9f9" d="M 245.5,254.5 C 243.5,254.5 241.5,254.5 239.5,254.5C 239.5,253.5 239.5,252.5 239.5,251.5C 239.611,250.883 239.944,250.383 240.5,250C 244.492,248.823 246.158,250.323 245.5,254.5 Z"/></g>
<g><path style="opacity:1" fill="#fcfcfc" d="M 258.5,249.5 C 260.792,249.244 262.959,249.577 265,250.5C 265.499,254.486 265.666,258.486 265.5,262.5C 262.348,263.041 259.848,262.041 258,259.5C 257.341,256.112 257.508,252.779 258.5,249.5 Z"/></g>
<g><path style="opacity:1" fill="#bbbaba" d="M 317.5,264.5 C 317.819,259.637 317.486,254.97 316.5,250.5C 314.958,249.699 313.292,249.366 311.5,249.5C 311.773,251.958 310.773,253.625 308.5,254.5C 307.386,253.277 307.219,251.944 308,250.5C 311.817,247.13 315.817,246.797 320,249.5C 320.333,253.5 320.667,257.5 321,261.5C 321.5,262 322,262.5 322.5,263C 320.846,263.608 319.179,264.108 317.5,264.5 Z"/></g>
<g><path style="opacity:1" fill="#e0dfdf" d="M 158.5,240.5 C 158.736,248.542 158.403,256.542 157.5,264.5C 158.791,264.263 159.791,264.596 160.5,265.5C 159.518,267.406 158.518,269.406 157.5,271.5C 155.087,268.623 153.253,268.956 152,272.5C 150.567,269.992 149.9,267.326 150,264.5C 150.923,265.759 151.757,267.092 152.5,268.5C 153.248,266.668 154.248,265.001 155.5,263.5C 154.726,262.289 153.893,262.289 153,263.5C 152.506,261.866 152.34,260.199 152.5,258.5C 153.806,255.166 154.806,251.666 155.5,248C 154.831,246.153 153.497,244.986 151.5,244.5C 150.548,242.955 150.215,241.288 150.5,239.5C 153.167,239.833 155.833,240.167 158.5,240.5 Z"/></g>
<g><path style="opacity:1" fill="#e1e0e0" d="M 304.5,248.5 C 305.451,249.919 305.784,251.585 305.5,253.5C 303.784,253.371 302.117,253.038 300.5,252.5C 301.542,251.209 302.708,251.209 304,252.5C 304.49,251.207 304.657,249.873 304.5,248.5 Z"/></g>
<g><path style="opacity:1" fill="#bbbaba" d="M 360.5,236.5 C 361.858,245.203 363.191,254.036 364.5,263C 363,263.5 361.5,264 360,264.5C 356.656,264.411 353.156,264.245 349.5,264C 347.667,263.5 346.5,262.333 346,260.5C 344.798,251.035 348.798,247.035 358,248.5C 358.498,245.518 358.665,242.518 358.5,239.5C 357.325,239.719 356.325,239.386 355.5,238.5C 357.291,237.83 358.958,237.163 360.5,236.5 Z"/></g>
<g><path style="opacity:1" fill="#fcfcfc" d="M 351.5,249.5 C 353.792,249.244 355.959,249.577 358,250.5C 358.499,254.486 358.666,258.486 358.5,262.5C 352.891,262.891 350.224,260.224 350.5,254.5C 350.592,252.742 350.925,251.076 351.5,249.5 Z"/></g>
<g><path style="opacity:1" fill="#bcbbbb" d="M 429.5,263.5 C 429.817,259.298 429.483,255.298 428.5,251.5C 428.134,250.305 427.301,249.639 426,249.5C 424.235,250.232 423.068,251.565 422.5,253.5C 421.137,254.879 420.137,254.713 419.5,253C 422.988,246.903 427.488,246.069 433,250.5C 433.2,254.753 433.7,258.92 434.5,263C 433.128,263.402 431.795,263.902 430.5,264.5C 429.893,264.376 429.56,264.043 429.5,263.5 Z"/></g>
<g><path style="opacity:1" fill="#bebdbd" d="M 444.5,250.5 C 444.5,250.167 444.5,249.833 444.5,249.5C 448.043,246.513 451.209,246.846 454,250.5C 453.928,255.308 454.761,259.808 456.5,264C 453.5,264.667 450.5,264.667 447.5,264C 449.399,259.822 450.065,255.322 449.5,250.5C 447.833,250.5 446.167,250.5 444.5,250.5 Z"/></g>
<g><path style="opacity:1" fill="#bab9b9" d="M 278.5,249.5 C 279.167,249.5 279.5,249.833 279.5,250.5C 279.5,251.167 279.5,251.833 279.5,252.5C 278.167,254.5 278.167,256.5 279.5,258.5C 281.41,263.814 284.743,264.814 289.5,261.5C 289.833,261.833 290.167,262.167 290.5,262.5C 285.345,266.724 280.512,266.39 276,261.5C 273.517,256.713 274.35,252.713 278.5,249.5 Z"/></g>
<g><path style="opacity:1" fill="#fafafa" d="M 410.5,254.5 C 412.578,261.413 410.245,264.08 403.5,262.5C 403.5,259.167 403.5,255.833 403.5,252.5C 406.188,252.166 408.521,252.832 410.5,254.5 Z"/></g>
<g><path style="opacity:1" fill="#e3e3e3" d="M 112.5,259.5 C 111.305,259.134 110.639,258.301 110.5,257C 111.833,255.333 111.833,253.667 110.5,252C 111.653,248.323 113.486,247.823 116,250.5C 117.126,253.723 117.293,256.889 116.5,260C 114.934,260.765 113.601,260.598 112.5,259.5 Z"/></g>
<g><path style="opacity:1" fill="#a3a2a2" d="M 112.5,250.5 C 114.337,250.639 114.67,251.306 113.5,252.5C 112.702,252.043 112.369,251.376 112.5,250.5 Z"/></g>
<g><path style="opacity:1" fill="#c7c6c6" d="M 158.5,240.5 C 159.167,243.167 159.833,245.833 160.5,248.5C 159.443,254.403 159.443,260.069 160.5,265.5C 159.791,264.596 158.791,264.263 157.5,264.5C 158.403,256.542 158.736,248.542 158.5,240.5 Z"/></g>
<g><path style="opacity:1" fill="#c5c4c4" d="M 279.5,258.5 C 278.167,256.5 278.167,254.5 279.5,252.5C 280.918,254.308 282.918,254.975 285.5,254.5C 285.799,249.74 283.799,248.406 279.5,250.5C 279.5,249.833 279.167,249.5 278.5,249.5C 285.611,246.062 289.611,248.396 290.5,256.5C 286.351,255.92 282.684,256.586 279.5,258.5 Z"/></g>
<g><path style="opacity:1" fill="#e4e3e3" d="M 127.5,249.5 C 128.822,249.33 129.989,249.663 131,250.5C 131.339,253.036 131.839,255.536 132.5,258C 131.553,261.072 129.553,262.072 126.5,261C 125.775,257.147 126.109,253.314 127.5,249.5 Z"/></g>
<g><path style="opacity:1" fill="#adacac" d="M 127.5,251.5 C 128.675,251.281 129.675,251.614 130.5,252.5C 128.948,253.798 127.948,253.465 127.5,251.5 Z"/></g>
<g><path style="opacity:1" fill="#dfdede" d="M 227.5,252.5 C 225.833,252.5 224.167,252.5 222.5,252.5C 222.5,255.833 222.5,259.167 222.5,262.5C 221.518,259.038 221.185,255.371 221.5,251.5C 223.735,251.205 225.735,251.539 227.5,252.5 Z"/></g>
<g><path style="opacity:1" fill="#cecece" d="M 239.5,251.5 C 239.5,252.5 239.5,253.5 239.5,254.5C 241.5,254.5 243.5,254.5 245.5,254.5C 246.568,255.434 247.901,255.768 249.5,255.5C 249.5,254.167 249.5,252.833 249.5,251.5C 250.451,252.919 250.784,254.585 250.5,256.5C 246.774,256.177 243.107,256.511 239.5,257.5C 240.127,258.417 240.461,259.417 240.5,260.5C 239.883,260.389 239.383,260.056 239,259.5C 238.199,256.633 238.366,253.966 239.5,251.5 Z"/></g>
<g><path style="opacity:1" fill="#e4e4e4" d="M 119.5,249.5 C 121.144,249.286 122.644,249.62 124,250.5C 124.667,253.167 124.667,255.833 124,258.5C 122.604,260.527 120.938,260.86 119,259.5C 118.253,256.076 118.42,252.743 119.5,249.5 Z"/></g>
<g><path style="opacity:1" fill="#b0b0b0" d="M 120.5,250.5 C 122.369,252.635 123.036,255.302 122.5,258.5C 121.5,258.5 120.5,258.5 119.5,258.5C 119.279,255.721 119.612,253.054 120.5,250.5 Z"/></g>
<g><path style="opacity:1" fill="#d9d8d8" d="M 376.5,250.5 C 377.833,254.5 377.833,258.5 376.5,262.5C 376.923,260.219 376.256,258.552 374.5,257.5C 374.158,256.662 373.492,256.328 372.5,256.5C 373.568,255.566 374.901,255.232 376.5,255.5C 376.5,253.833 376.5,252.167 376.5,250.5 Z"/></g>
<g><path style="opacity:1" fill="#dcdcdc" d="M 477.5,250.5 C 478.833,254.5 478.833,258.5 477.5,262.5C 477.784,260.585 477.451,258.919 476.5,257.5C 475.791,256.596 474.791,256.263 473.5,256.5C 474.568,255.566 475.901,255.232 477.5,255.5C 477.5,253.833 477.5,252.167 477.5,250.5 Z"/></g>
<g><path style="opacity:1" fill="#aeadad" d="M 112.5,259.5 C 112.5,258.167 112.5,256.833 112.5,255.5C 113.5,255.5 114.5,255.5 115.5,255.5C 115.5,256.833 115.5,258.167 115.5,259.5C 114.5,259.5 113.5,259.5 112.5,259.5 Z"/></g>
<g><path style="opacity:1" fill="#acabab" d="M 127.5,256.5 C 128.5,256.5 129.5,256.5 130.5,256.5C 130.778,258.346 130.111,259.68 128.5,260.5C 127.571,259.311 127.238,257.978 127.5,256.5 Z"/></g>
<g><path style="opacity:1" fill="#cbcaca" d="M 316.5,250.5 C 317.486,254.97 317.819,259.637 317.5,264.5C 316.5,263.167 315.5,263.167 314.5,264.5C 313.833,263.833 313.167,263.167 312.5,262.5C 313.833,262.5 315.167,262.5 316.5,262.5C 316.5,260.833 316.5,259.167 316.5,257.5C 314.784,257.629 313.117,257.962 311.5,258.5C 311.158,257.662 310.492,257.328 309.5,257.5C 311.438,255.837 313.772,255.171 316.5,255.5C 316.5,253.833 316.5,252.167 316.5,250.5 Z"/></g>
<g><path style="opacity:1" fill="#f8f8f8" d="M 312.5,262.5 C 311.566,261.432 311.232,260.099 311.5,258.5C 313.117,257.962 314.784,257.629 316.5,257.5C 316.5,259.167 316.5,260.833 316.5,262.5C 315.167,262.5 313.833,262.5 312.5,262.5 Z"/></g>
<g><path style="opacity:1" fill="#fcfcfc" d="M 374.5,257.5 C 376.256,258.552 376.923,260.219 376.5,262.5C 375.167,262.5 373.833,262.5 372.5,262.5C 372.12,260.302 372.787,258.635 374.5,257.5 Z"/></g>
<g><path style="opacity:1" fill="#fafafa" d="M 424.5,262.5 C 423.314,261.039 423.314,259.705 424.5,258.5C 425.708,257.766 427.041,257.433 428.5,257.5C 428.5,259.167 428.5,260.833 428.5,262.5C 427.167,262.5 425.833,262.5 424.5,262.5 Z"/></g>
<g><path style="opacity:1" fill="#fbfbfb" d="M 476.5,257.5 C 477.451,258.919 477.784,260.585 477.5,262.5C 476.167,262.5 474.833,262.5 473.5,262.5C 472.916,259.715 473.916,258.048 476.5,257.5 Z"/></g>
<g><path style="opacity:1" fill="#e8e7e7" d="M 106.5,250.5 C 107.496,250.414 108.329,250.748 109,251.5C 109.498,254.817 109.665,258.15 109.5,261.5C 108.448,261.649 107.448,261.483 106.5,261C 107.717,257.534 107.717,254.034 106.5,250.5 Z"/></g>
<g><path style="opacity:1" fill="#b7b6b6" d="M 424.5,258.5 C 423.314,259.705 423.314,261.039 424.5,262.5C 425.167,263.167 425.833,263.833 426.5,264.5C 420.496,265.836 418.496,263.836 420.5,258.5C 422.035,257.646 423.368,257.646 424.5,258.5 Z"/></g>
<g><path style="opacity:1" fill="#cccccc" d="M 428.5,251.5 C 429.483,255.298 429.817,259.298 429.5,263.5C 428.391,263.557 427.391,263.89 426.5,264.5C 425.833,263.833 425.167,263.167 424.5,262.5C 425.833,262.5 427.167,262.5 428.5,262.5C 428.5,260.833 428.5,259.167 428.5,257.5C 427.041,257.433 425.708,257.766 424.5,258.5C 423.368,257.646 422.035,257.646 420.5,258.5C 422.503,256.018 425.169,255.018 428.5,255.5C 428.5,254.167 428.5,252.833 428.5,251.5 Z"/></g>
<g><path style="opacity:1" fill="#b7b6b6" d="M 309.5,257.5 C 310.492,257.328 311.158,257.662 311.5,258.5C 311.232,260.099 311.566,261.432 312.5,262.5C 313.167,263.167 313.833,263.833 314.5,264.5C 308.887,265.921 306.72,263.921 308,258.5C 308.383,257.944 308.883,257.611 309.5,257.5 Z"/></g>
<g><path style="opacity:1" fill="#d7d7d7" d="M 77.5,241.5 C 77.3367,243.857 77.5034,246.19 78,248.5C 78.3826,247.944 78.8826,247.611 79.5,247.5C 80.0815,252.083 81.4149,256.417 83.5,260.5C 84.0547,264.584 83.0547,265.251 80.5,262.5C 79.7025,262.957 79.3691,263.624 79.5,264.5C 79.3276,268.971 78.4943,269.304 77,265.5C 76.51,266.793 76.3433,268.127 76.5,269.5C 75.6618,269.842 75.3284,270.508 75.5,271.5C 74.6827,269.169 74.0161,266.669 73.5,264C 75.3149,259.366 75.9816,254.533 75.5,249.5C 76.1667,246.833 76.8333,244.167 77.5,241.5 Z"/></g>
<g><path style="opacity:1" fill="#edecec" d="M 79.5,264.5 C 80.9432,265.335 81.9432,266.668 82.5,268.5C 83.2432,267.092 84.0766,265.759 85,264.5C 85.0905,266.876 84.5905,269.209 83.5,271.5C 82.5,270.833 81.5,270.167 80.5,269.5C 79.5,270.167 78.5,270.833 77.5,271.5C 76.7025,271.043 76.3691,270.376 76.5,269.5C 76.3433,268.127 76.51,266.793 77,265.5C 78.4943,269.304 79.3276,268.971 79.5,264.5 Z"/></g>
<g><path style="opacity:1" fill="#cdcccc" d="M 152.5,258.5 C 152.34,260.199 152.506,261.866 153,263.5C 153.893,262.289 154.726,262.289 155.5,263.5C 154.248,265.001 153.248,266.668 152.5,268.5C 151.757,267.092 150.923,265.759 150,264.5C 149.9,267.326 150.567,269.992 152,272.5C 153.253,268.956 155.087,268.623 157.5,271.5C 158.518,269.406 159.518,267.406 160.5,265.5C 161.135,270.547 159.135,274.214 154.5,276.5C 149.838,273.842 147.838,269.842 148.5,264.5C 149.475,262.205 150.808,260.205 152.5,258.5 Z"/></g>
<g><path style="opacity:1" fill="#cac9c9" d="M 83.5,260.5 C 84.3412,261.926 85.3412,263.26 86.5,264.5C 87.2598,270.52 84.9265,274.353 79.5,276C 78.3012,274.306 76.9678,272.806 75.5,271.5C 75.3284,270.508 75.6618,269.842 76.5,269.5C 76.3691,270.376 76.7025,271.043 77.5,271.5C 78.5,270.833 79.5,270.167 80.5,269.5C 81.5,270.167 82.5,270.833 83.5,271.5C 84.5905,269.209 85.0905,266.876 85,264.5C 84.0766,265.759 83.2432,267.092 82.5,268.5C 81.9432,266.668 80.9432,265.335 79.5,264.5C 79.3691,263.624 79.7025,262.957 80.5,262.5C 83.0547,265.251 84.0547,264.584 83.5,260.5 Z"/></g>
<g><path style="opacity:1" fill="#cacaca" d="M 112.5,263.5 C 113.167,263.5 113.833,263.5 114.5,263.5C 114.5,266.167 114.5,268.833 114.5,271.5C 113.624,271.369 112.957,271.702 112.5,272.5C 113.041,274.535 113.708,276.535 114.5,278.5C 115.5,277.833 116.5,277.167 117.5,276.5C 118.5,277.167 119.5,277.833 120.5,278.5C 121.221,276.314 121.887,274.147 122.5,272C 121.906,271.536 121.239,271.369 120.5,271.5C 120.5,268.833 120.5,266.167 120.5,263.5C 120.833,263.5 121.167,263.5 121.5,263.5C 121.5,265.5 121.5,267.5 121.5,269.5C 122.5,269.5 123.5,269.5 124.5,269.5C 124.002,272.487 123.502,275.487 123,278.5C 121.003,279.672 119.17,281.005 117.5,282.5C 112.788,280.264 110.455,276.43 110.5,271C 112.085,268.744 112.752,266.244 112.5,263.5 Z"/></g>
<g><path style="opacity:1" fill="#ebebeb" d="M 120.5,271.5 C 121.239,271.369 121.906,271.536 122.5,272C 121.887,274.147 121.221,276.314 120.5,278.5C 119.5,277.833 118.5,277.167 117.5,276.5C 116.5,277.167 115.5,277.833 114.5,278.5C 113.708,276.535 113.041,274.535 112.5,272.5C 112.957,271.702 113.624,271.369 114.5,271.5C 114.238,272.978 114.571,274.311 115.5,275.5C 116.42,269.054 117.754,269.054 119.5,275.5C 120.429,274.311 120.762,272.978 120.5,271.5 Z"/></g>
<g><path style="opacity:1" fill="#dadada" d="M 114.5,263.5 C 116.5,263.5 118.5,263.5 120.5,263.5C 120.5,266.167 120.5,268.833 120.5,271.5C 120.762,272.978 120.429,274.311 119.5,275.5C 117.754,269.054 116.42,269.054 115.5,275.5C 114.571,274.311 114.238,272.978 114.5,271.5C 114.5,268.833 114.5,266.167 114.5,263.5 Z"/></g>
</svg>
